<svg version="1.1" viewBox="0 0 128 128" xmlns="http://www.w3.org/2000/svg" xmlns:svg="http://www.w3.org/2000/svg" xmlns:xlink="http://www.w3.org/1999/xlink">
<defs>
<filter id="filter4823">
<feGaussianBlur stdDeviation="1.002"/>
</filter>
<filter id="filter4107">
<feGaussianBlur stdDeviation=".278"/>
</filter>
<filter id="filter8329">
<feGaussianBlur stdDeviation=".501"/>
</filter>
<filter id="filter4123">
<feGaussianBlur stdDeviation="2.028"/>
</filter>
<filter height="1.712" id="filter8354" width="1.119" x="-.059" y="-.356">
<feGaussianBlur stdDeviation=".228"/>
</filter>
<linearGradient id="linearGradient5982">
<stop offset="0" stop-color="#fff"/>
<stop offset="1" stop-color="#fff" stop-opacity="0"/>
</linearGradient>
<linearGradient gradientUnits="userSpaceOnUse" id="XMLID_143_" x2="0" y1="57.999" y2="119">
<stop offset=".051" stop-color="#eeeeec"/>
<stop offset="1" stop-color="#888a85"/>
</linearGradient>
<linearGradient gradientUnits="userSpaceOnUse" id="XMLID_123_" x1="66.529" x2="67.861" y1="114.649" y2="121.31">
<stop offset=".051" stop-color="#eeeeec"/>
<stop offset="1" stop-color="#888a85"/>
</linearGradient>
<linearGradient gradientUnits="userSpaceOnUse" id="XMLID_120_" x1="61.47" x2="60.138" y1="110.65" y2="117.31">
<stop offset=".051" stop-color="#eeeeec"/>
<stop offset="1" stop-color="#888a85"/>
</linearGradient>
<linearGradient gradientUnits="userSpaceOnUse" id="XMLID_119_" x1="66.53" x2="67.862" y1="106.649" y2="113.31">
<stop offset=".051" stop-color="#eeeeec"/>
<stop offset="1" stop-color="#888a85"/>
</linearGradient>
<linearGradient gradientUnits="userSpaceOnUse" id="XMLID_122_" x1="61.471" x2="60.138" y1="102.648" y2="109.311">
<stop offset=".051" stop-color="#eeeeec"/>
<stop offset="1" stop-color="#888a85"/>
</linearGradient>
<linearGradient gradientUnits="userSpaceOnUse" id="XMLID_121_" x1="66.53" x2="67.862" y1="98.649" y2="105.31">
<stop offset=".051" stop-color="#eeeeec"/>
<stop offset="1" stop-color="#888a85"/>
</linearGradient>
<linearGradient gradientUnits="userSpaceOnUse" id="XMLID_130_" x1="61.47" x2="60.138" y1="94.651" y2="101.311">
<stop offset=".051" stop-color="#eeeeec"/>
<stop offset="1" stop-color="#888a85"/>
</linearGradient>
<linearGradient gradientUnits="userSpaceOnUse" id="XMLID_147_" x2="0" y1="58.001" y2="119.001">
<stop offset=".051" stop-color="#bdbec4"/>
<stop offset="1" stop-color="#fff"/>
</linearGradient>
<linearGradient gradientUnits="userSpaceOnUse" id="XMLID_148_" x2="0" y1="58.001" y2="119.001">
<stop offset=".051" stop-color="#eeeeec"/>
<stop offset="1" stop-color="#f3f3f2"/>
</linearGradient>
<linearGradient gradientUnits="userSpaceOnUse" id="linearGradient7419" x2="0" y1="923.039" y2="1040.984">
<stop offset="0" stop-color="#eeecec"/>
<stop offset=".4" stop-color="#f4f4f4"/>
<stop offset="1" stop-color="#f6f5f5"/>
</linearGradient>
<linearGradient gradientUnits="userSpaceOnUse" id="linearGradient7427" x1="61.932" x2="60.908" y1="43.608" y2="48.725">
<stop offset=".051" stop-color="#eeeeec"/>
<stop offset="1" stop-color="#888a85"/>
</linearGradient>
<linearGradient gradientUnits="userSpaceOnUse" id="linearGradient7431" x1="65.819" x2="66.842" y1="46.681" y2="51.798">
<stop offset=".051" stop-color="#eeeeec"/>
<stop offset="1" stop-color="#888a85"/>
</linearGradient>
<linearGradient gradientUnits="userSpaceOnUse" id="linearGradient7496" x1="59.829" x2="61.207" y1="23.407" y2="28.454">
<stop offset=".051" stop-color="#eeeeec"/>
<stop offset="1" stop-color="#888a85"/>
</linearGradient>
<linearGradient gradientUnits="userSpaceOnUse" id="linearGradient7500" x1="56.875" x2="57.643" y1="24.595" y2="31.509">
<stop offset=".051" stop-color="#eeeeec"/>
<stop offset="1" stop-color="#888a85"/>
</linearGradient>
<linearGradient gradientUnits="userSpaceOnUse" id="linearGradient7504" x1="50.801" x2="54.297" y1="2.183" y2="7.389">
<stop offset=".051" stop-color="#eeeeec"/>
<stop offset="1" stop-color="#888a85"/>
</linearGradient>
<linearGradient gradientUnits="userSpaceOnUse" id="linearGradient7508" x1="44.75" x2="48.948" y1="-7.852" y2="-2.76">
<stop offset=".051" stop-color="#eeeeec"/>
<stop offset="1" stop-color="#888a85"/>
</linearGradient>
<linearGradient gradientUnits="userSpaceOnUse" id="linearGradient7510" x2="0" y1="21.598" y2="68.462">
<stop offset=".051" stop-color="#eeeeec"/>
<stop offset="1" stop-color="#888a85"/>
</linearGradient>
<linearGradient gradientUnits="userSpaceOnUse" id="linearGradient7528" x1="39.011" x2="43.696" y1="-15.976" y2="-11.189">
<stop offset=".051" stop-color="#eeeeec"/>
<stop offset="1" stop-color="#888a85"/>
</linearGradient>
<linearGradient gradientUnits="userSpaceOnUse" id="linearGradient7532" x1="61.057" x2="67.267" y1="28.982" y2="56.925">
<stop offset=".051" stop-color="#515151"/>
<stop offset="1" stop-color="#343633"/>
</linearGradient>
<linearGradient gradientUnits="userSpaceOnUse" id="linearGradient7534" x1="58.413" x2="67.632" y1="29.192" y2="40.717">
<stop offset="0" stop-color="#fff"/>
<stop offset="1" stop-color="#373836"/>
</linearGradient>
<linearGradient gradientUnits="userSpaceOnUse" id="linearGradient7536" x1="62.377" x2="66.218" y1="30.529" y2="41.283">
<stop offset="0" stop-color="#fff"/>
<stop offset=".133" stop-color="#fafafa"/>
<stop offset=".288" stop-color="#ecedec"/>
<stop offset=".453" stop-color="#d5d6d5"/>
<stop offset=".625" stop-color="#b5b6b4"/>
<stop offset=".803" stop-color="#8c8d8a"/>
<stop offset=".984" stop-color="#5a5c58"/>
<stop offset="1" stop-color="#555753"/>
</linearGradient>
<linearGradient gradientUnits="userSpaceOnUse" id="linearGradient7538" x1="63.523" x2="64.291" y1="33.96" y2="37.803">
<stop offset="0" stop-color="#a9ada4"/>
<stop offset="1" stop-color="#3f403d"/>
</linearGradient>
<linearGradient gradientUnits="userSpaceOnUse" id="linearGradient7540" x1="61.813" x2="67.191" y1="40.88" y2="54.709">
<stop offset=".006" stop-color="#fff"/>
<stop offset=".135" stop-color="#f0f0f0"/>
<stop offset=".384" stop-color="#cacac9"/>
<stop offset=".723" stop-color="#8c8d8b"/>
<stop offset="1" stop-color="#555753"/>
</linearGradient>
<linearGradient gradientUnits="userSpaceOnUse" id="linearGradient7542" x1="62.113" x2="66.765" y1="36.604" y2="59.863">
<stop offset="0" stop-color="#eeeeec"/>
<stop offset="1" stop-color="#babdb6"/>
</linearGradient>
<linearGradient gradientUnits="userSpaceOnUse" id="linearGradient7544" x1="62.338" x2="65.411">
<stop offset=".051" stop-color="#fff"/>
<stop offset=".933" stop-color="#d3d7cf"/>
<stop offset="1" stop-color="#888a85"/>
</linearGradient>
<linearGradient gradientUnits="userSpaceOnUse" id="linearGradient7546" x1="63.188" x2="64.724" y1="32.335" y2="39.25">
<stop offset=".051" stop-color="#fff"/>
<stop offset="1" stop-color="#d3d7cf"/>
</linearGradient>
<linearGradient gradientUnits="userSpaceOnUse" id="linearGradient7429" x2="0" xlink:href="#XMLID_148_" y1="21.598" y2="68.462"/>
<linearGradient gradientUnits="userSpaceOnUse" id="linearGradient7433" x2="0" xlink:href="#XMLID_147_" y1="21.598" y2="68.462"/>
<linearGradient gradientUnits="userSpaceOnUse" id="linearGradient7435" x1="61.931" x2="60.908" xlink:href="#XMLID_130_" y1="49.756" y2="54.872"/>
<linearGradient gradientUnits="userSpaceOnUse" id="linearGradient7439" x1="65.819" x2="66.842" xlink:href="#XMLID_121_" y1="52.827" y2="57.944"/>
<linearGradient gradientUnits="userSpaceOnUse" id="linearGradient7443" x1="61.932" x2="60.908" xlink:href="#XMLID_122_" y1="55.899" y2="61.018"/>
<linearGradient gradientUnits="userSpaceOnUse" id="linearGradient7447" x1="65.819" x2="66.842" xlink:href="#XMLID_119_" y1="58.973" y2="64.09"/>
<linearGradient gradientUnits="userSpaceOnUse" id="linearGradient7451" x1="61.931" x2="60.908" xlink:href="#XMLID_120_" y1="62.047" y2="67.163"/>
<linearGradient gradientUnits="userSpaceOnUse" id="linearGradient7455" x1="65.818" x2="66.841" xlink:href="#XMLID_123_" y1="65.119" y2="70.236"/>
<linearGradient gradientUnits="userSpaceOnUse" id="linearGradient7459" x1="61.931" x2="60.908" xlink:href="#XMLID_130_" y1="68.756" y2="73.872"/>
<linearGradient gradientUnits="userSpaceOnUse" id="linearGradient7461" x2="0" xlink:href="#XMLID_148_" y1="40.598" y2="87.462"/>
<linearGradient gradientUnits="userSpaceOnUse" id="linearGradient7463" x1="65.819" x2="66.842" xlink:href="#XMLID_121_" y1="71.827" y2="76.944"/>
<linearGradient gradientUnits="userSpaceOnUse" id="linearGradient7465" x2="0" xlink:href="#XMLID_147_" y1="40.598" y2="87.462"/>
<linearGradient gradientUnits="userSpaceOnUse" id="linearGradient7467" x1="61.932" x2="60.908" xlink:href="#XMLID_122_" y1="74.899" y2="80.018"/>
<linearGradient gradientUnits="userSpaceOnUse" id="linearGradient7471" x1="65.819" x2="66.842" xlink:href="#XMLID_119_" y1="77.973" y2="83.09"/>
<linearGradient gradientUnits="userSpaceOnUse" id="linearGradient7475" x1="61.931" x2="60.908" xlink:href="#XMLID_120_" y1="81.047" y2="86.163"/>
<linearGradient gradientUnits="userSpaceOnUse" id="linearGradient7479" x1="65.818" x2="66.841" xlink:href="#XMLID_123_" y1="84.119" y2="89.236"/>
<linearGradient gradientUnits="userSpaceOnUse" id="linearGradient7484" x1="61.931" x2="60.908" xlink:href="#XMLID_120_" y1="87.047" y2="92.163"/>
<linearGradient gradientUnits="userSpaceOnUse" id="linearGradient7486" x2="0" xlink:href="#XMLID_148_" y1="46.598" y2="93.462"/>
<linearGradient gradientUnits="userSpaceOnUse" id="linearGradient7488" x1="65.818" x2="66.841" xlink:href="#XMLID_123_" y1="90.119" y2="95.236"/>
<linearGradient gradientUnits="userSpaceOnUse" id="linearGradient7490" x2="0" xlink:href="#XMLID_147_" y1="46.598" y2="93.462"/>
<linearGradient gradientUnits="userSpaceOnUse" id="linearGradient7492" x1="61.931" x2="60.908" xlink:href="#XMLID_120_" y1="93.047" y2="98.163"/>
<linearGradient gradientUnits="userSpaceOnUse" id="linearGradient7494" x2="0" xlink:href="#XMLID_148_" y1="52.598" y2="99.462"/>
<linearGradient gradientUnits="userSpaceOnUse" id="linearGradient7498" x2="0" xlink:href="#XMLID_143_" y1="21.597" y2="68.462"/>
<linearGradient gradientUnits="userSpaceOnUse" id="linearGradient7502" x2="0" xlink:href="#XMLID_143_" y1="21.597" y2="68.462"/>
<linearGradient gradientUnits="userSpaceOnUse" id="linearGradient7506" x2="0" xlink:href="#XMLID_143_" y1="21.597" y2="68.461"/>
<linearGradient gradientUnits="userSpaceOnUse" id="linearGradient7530" x2="0" xlink:href="#XMLID_143_" y1="21.597" y2="68.462"/>
<mask id="mask4757" maskUnits="userSpaceOnUse">
<path d="m50.4442,-73.2094c-.2205,0-.3244,.1522-.3244,.3244l0,70.6942c0,.533 .4407,.9728 .9731,.9731l35.6816,.0203c.0344,1.95e-5 .6474,-.0052 1.0948,3.25e-5 6.5515,-2.592 16.487,-14.5667 22.2903,-20.4067 .9581,-1.0747 .7226,-.7469 .9432,-1.8741l4e-5,-49.4068c0,-.2094-.1059,-.3244-.3244,-.3244z" fill="url(#radialGradient4761)" opacity=".847"/>
</mask>
<radialGradient cx="73.97" cy="-42.722" gradientTransform="matrix(1.90511,0,0,1.9929,-66.95075,42.60037)" gradientUnits="userSpaceOnUse" id="radialGradient7423" r="29.652">
<stop offset="0"/>
<stop offset="1" stop-opacity="0"/>
</radialGradient>
<radialGradient cx="64" cy="64.004" fx="63.793" fy="47.275" gradientTransform="matrix(1.09264,-.05469,.04468,.89261,7.4985,-90.83173)" gradientUnits="userSpaceOnUse" id="radialGradient4761" r="47.5" xlink:href="#linearGradient5982"/>
<radialGradient cx="64" cy="64.004" fx="63.793" fy="47.275" gradientTransform="matrix(1.70699,-.08541,.06979,1.39414,-48.57346,904.14606)" gradientUnits="userSpaceOnUse" id="radialGradient7421" r="47.5" xlink:href="#linearGradient5982"/>
</defs>
<g transform="matrix(1.18324,0,0,1.00182,-11.72733,-926.16191)">
<path d="m13.333,5.3364 0,118.3304L112,123.6381 111.9972,5.3364z" filter="url(#filter4123)" opacity=".456" transform="matrix(1.01353,0,0,1.01327,.48575,923.00492)"/>
<path d="m14.0002,928.3643 0,119.9999 99.9906,0 .009,-120.004z" fill="#fff"/>
<path d="m17.5067,931.3461c-.3444,0-.5068,.2377-.5068,.5066l0,111.9735c0,.8325 .6885,1.5202 1.5203,1.5199 30.3169,.091 60.6338,-.039 90.9506,-.049 .9604,0 1.5042,-.5003 1.5047,-1.4613l.0244,-43.064 0,-68.9187c0,-.327-.1654,-.5066-.5068,-.5066z" fill="url(#linearGradient7419)"/>
<path d="m17.2957,931.3643c-.3444,0-.5068,.2377-.5068,.5066l0,111.9734c0,.8325 .6885,1.5149 1.5203,1.5199l92.0914,0c.3789,0 1.3789,0 .3789,-.3951l.009,-113.1023c0,-.327-.1654,-.5066-.5068,-.5066z" fill="url(#radialGradient7421)" opacity=".847"/>
<text fill="#59aeee" font-family="DejaVu Sans" font-size="37.65614319" letter-spacing="0" line-height="125%" word-spacing="0" x="20.451" y="962.955">
    <tspan fill="#59aeee" font-weight="bold" x="20.451" y="962.955">SVG</tspan>
   </text>
<g filter="url(#filter4823)" mask="url(#mask4757)" opacity=".615" transform="matrix(1.54141,0,0,1.54141,-61.7406,1060.29774)">
<path d="m83.9522,-33.8103c-.573,-.3291-1.171,-.531-1.7647,-.5709-1.9622,-.1319-4.1444,.5345-5.625,1.6152-1.0769,.786-2.1874,2.0986-2.5,3.6446-.1025,.5069-.6787,.9925-.9688,1.2011-.2901,.2086-.6702,.4202-1.0938,.5798-.6627,.2555-1.6025,.3374-2.625,.2071-2.2248,-.3523-4.0416,-1.782-5.1875,-3.5204-1.304,-2.2796-1.4871,-4.9373-1,-7.2893 .5573,-2.5822 2.1854,-5.2396 4.4375,-7.6206 2.002,-2.1468 4.574,-3.9965 7.4688,-5.6326 2.8947,-1.6361 6.1051,-3.052 9.3125,-4.4315 9.1838,-3.7515 19.2587,-8.4461 25.1562,-15.4483 .7262,-.8899 1.3469,-1.76 1.9375,-2.6506l0,-3.8103c-1.1258,1.6172-2.4641,3.2748-4.0938,4.8457-1.7594,1.696-3.8417,3.2738-6.1875,4.6386-2.5752,1.531-5.5211,2.8121-8.75,3.9346-3.2289,1.1224-6.7486,2.1079-10.3438,3.2305-3.4616,1.0258-7.0508,2.199-10.5625,3.7689-3.5117,1.5699-6.9345,3.5543-10.0312,6.0468-1.7366,1.4199-3.2985,3.0234-4.625,4.8043-1.3265,1.7808-2.3982,3.7339-3.1875,5.7983-.858,2.2478-1.2676,4.5764-1.2188,6.9165 .0488,2.3401 .541,4.6874 1.4688,6.8751 1.1057,2.5614 2.8366,4.7387 4.9375,6.4609 2.1009,1.7223 4.5618,2.9678 7.1562,3.7275 2.4601,.679 4.931,.8216 7.2258,.5786m6.7141,-2.093c1.3735,-.7375 2.4676,-1.5142 3.4039,-2.3787 1.4821,-1.3919 2.3399,-2.72 2.875,-3.7275 .5351,-1.0075 .7618,-1.7089 .8125,-1.9466 .1392,-.6532 .1722,-1.3655 .125,-2.1122-.045,-.6671-.1711,-1.3448-.381,-1.9869" fill="none" stroke="url(#radialGradient7423)" stroke-width=".3"/>
<path d="M91.75,-67.375 54.4362,-49.0915" fill="none" stroke="#000" stroke-width=".1"/>
<path d="m91.5,-69.5 0,.5 0,2 0,.5 .5,0 2,0 .5,0 0,-.5 0,-2.5-2.5,0zm.5,.5 2,0 0,2-2,0z"/>
<path d="m51.5,-49.5 0,.5 0,2 0,.5 .5,0 2,0 .5,0 0,-.5 0,-2.5-2.5,0zm.5,.5 2,0 0,2-2,0z"/>
<path d="M91.75,-67.375 54.4362,-49.0915" fill="none" filter="url(#filter4107)" stroke="#000" stroke-width=".2"/>
<path d="m71,-59.5 0,2.5 2.5,0 0,-2.5z"/>
<path d="m77.3676,-34.6084 0,1.9463 1.9463,0 0,-1.9463zm.3244,.3244 1.2975,0 0,1.2975-1.2975,0z" opacity=".402"/>
<path d="m57.2562,-21.6333 0,1.9463 1.9463,0 0,-1.9463zm.3244,.3244 1.2975,0 0,1.2975-1.2975,0z" opacity=".402"/>
<path d="m86.1258,-28.7696 0,1.9463 1.9463,0 0,-1.9463zm.3244,.3244 1.2975,0 0,1.2975-1.2975,0z" opacity=".402"/>
</g>
<g mask="url(#mask4757)" opacity=".276" transform="matrix(1.54141,0,0,1.54141,-61.72596,1060.30704)">
<path d="m83.9698,-33.8001c-.5784,-.3351-1.1826,-.5408-1.7823,-.5811-1.9622,-.1319-4.1444,.5345-5.625,1.6152-1.0769,.786-2.1874,2.0986-2.5,3.6446-.1025,.5069-.6787,.9925-.9688,1.2011-.2901,.2086-.6702,.4202-1.0938,.5798-.6627,.2555-1.6025,.3374-2.625,.2071-2.2248,-.3523-4.0416,-1.782-5.1875,-3.5204-1.304,-2.2796-1.4871,-4.9373-1,-7.2893 .5573,-2.5822 2.1854,-5.2396 4.4375,-7.6206 2.002,-2.1468 4.574,-3.9965 7.4688,-5.6326 2.8947,-1.6361 6.1051,-3.052 9.3125,-4.4315 9.1838,-3.7515 19.2587,-8.4461 25.1562,-15.4483 .7262,-.8899 1.3469,-1.76 1.9375,-2.6506l0,-3.8103c-1.1258,1.6172-2.4641,3.2748-4.0938,4.8457-1.7594,1.696-3.8417,3.2738-6.1875,4.6386-2.5752,1.531-5.5211,2.8121-8.75,3.9346-3.2289,1.1224-6.7486,2.1079-10.3438,3.2305-3.4616,1.0258-7.0508,2.199-10.5625,3.7689-3.5117,1.5699-6.9345,3.5543-10.0312,6.0468-1.7366,1.4199-3.2985,3.0234-4.625,4.8043-1.3265,1.7808-2.3982,3.7339-3.1875,5.7983-.858,2.2478-1.2676,4.5764-1.2188,6.9165 .0488,2.3401 .541,4.6874 1.4688,6.8751 1.1057,2.5614 2.8366,4.7387 4.9375,6.4609 2.1009,1.7223 4.5618,2.9678 7.1562,3.7275 2.4596,.6788 4.93,.8216 7.2243,.5788m6.7156,-2.0932c1.3735,-.7375 2.4676,-1.5142 3.4039,-2.3787 1.4821,-1.3919 2.3399,-2.72 2.875,-3.7275 .5351,-1.0075 .7618,-1.7089 .8125,-1.9466 .1392,-.6532 .1722,-1.3655 .125,-2.1122-.044,-.6523-.1656,-1.3147-.3672,-1.9441" fill="none" stroke="url(#radialGradient7423)" stroke-width=".13"/>
<path d="M91.75,-67.375 54.4362,-49.0915" fill="none" stroke="#000" stroke-width=".1"/>
<path d="m91.5,-69.5 0,.5 0,2 0,.5 .5,0 2,0 .5,0 0,-.5 0,-2.5-2.5,0zm.5,.5 2,0 0,2-2,0z"/>
<path d="m51.5,-49.5 0,.5 0,2 0,.5 .5,0 2,0 .5,0 0,-.5 0,-2.5-2.5,0zm.5,.5 2,0 0,2-2,0z"/>
<path d="M91.75,-67.375 54.4362,-49.0915" fill="none" filter="url(#filter4107)" stroke="#000" stroke-width=".2"/>
<path d="m71,-59.5 0,2.5 2.5,0 0,-2.5z"/>
<path d="m77.3676,-34.6084 0,1.9463 1.9463,0 0,-1.9463zm.3244,.3244 1.2975,0 0,1.2975-1.2975,0z" opacity=".402"/>
<path d="m57.2562,-21.6333 0,1.9463 1.9463,0 0,-1.9463zm.3244,.3244 1.2975,0 0,1.2975-1.2975,0z" opacity=".402"/>
<path d="m86.1258,-28.7696 0,1.9463 1.9463,0 0,-1.9463zm.3244,.3244 1.2975,0 0,1.2975-1.2975,0z" opacity=".402"/>
</g>
<g transform="translate(278.97103,-134.29799)">
<path d="m-263.942,1109.7866 0,69.6046c0,1.1258 .9137,2.0395 2.0395,2.0395l93.9025,-.068c1,-7e-4 2.0006,-1.0005 2,-2l-.0454,-69.5755c0,0-30.4665,-3.0955-50.9878,17.4258-21.9571,-21.9571-46.9088,-17.4258-46.9088,-17.4258z" fill="#95defd" opacity=".4"/>
<path d="m-198.0402,1114.8279c-4.9368,1.992-9.9504,4.6979-14.6271,8.4448l46.6606,46.8285-.0182,-23.2422-32.0152,-32.0312z" fill-rule="evenodd" opacity=".207"/>
<g transform="matrix(1.01285,0,0,1.01285,-280.41295,1079.718)">
<path d="m62.3483,44.488c-.0184,-.0392-.0906,-.1828-.0906,-.1828-.1298,-.2597-.3964,-.4248-.6876,-.4248l-3.8413,0c-.4241,0-.7683,.3434-.7683,.7683l0,3.073c0,.4248 .3442,.7683 .7683,.7683l7.6826,0c.4248,0 .7683,-.3434 .7683,-.7683l0,-1.5365c0,-1.2707-1.0341,-2.3048-2.3048,-2.3048-.5916,0-1.1186,.2397-1.5265,.6077z" fill-opacity=".657"/>
<path d="m61.57,43.8773 .7683,1.5365c0,-.8489 .6884,-1.5365 1.5365,-1.5365 .8489,0 1.5365,.6876 1.5365,1.5365l0,1.5365-7.6826,0 0,-3.073 3.8413,0z" fill="url(#linearGradient7427)"/>
<path d="m63.1065,45.4138c0,.3565-.2451,.6661-.5916,.7483-.0592,.0131-.1175,.02-.1767,.02 1.1063,0 1.8892,0 2.3048,0 0,-.3841 0,-.7683 0,-.7683 0,-.4241-.3449,-.7683-.7683,-.7683-.4233,0-.7683,.3442-.7683,.7683zm-4.6096,-.7683c0,.5762 0,.9603 0,1.5365 .6914,0 1.9975,0 3.8413,0-.2858,0-.5547,-.1606-.6868,-.4248 0,0-.3334,-.6669-.5562,-1.1117-.5631,0-1.767,0-2.5983,0z" fill="url(#linearGradient7429)"/>
</g>
<g transform="matrix(1.01285,0,0,1.01285,-280.41295,1079.718)">
<path d="m66.1796,46.9534c-.2912,0-.557,.1652-.6876,.4248 0,0-.0722,.1444-.0906,.1828-.4087,-.368-.9357,-.6077-1.5265,-.6077-1.2707,0-2.3048,1.0341-2.3048,2.3048l0,1.5365c0,.4248 .3442,.7683 .7683,.7683l7.6826,0c.4248,0 .7683,-.3434 .7683,-.7683l0,-3.073c0,-.4248-.3434,-.7683-.7683,-.7683l-3.8413,0z" fill-opacity=".657"/>
<path d="m66.1796,46.9503-.7683,1.5365c0,-.8489-.6884,-1.5365-1.5365,-1.5365-.8489,0-1.5365,.6876-1.5365,1.5365l0,1.5365 7.6826,0 0,-3.073-3.8413,0z" fill="url(#linearGradient7431)"/>
<path d="m66.6544,47.7186c-.2228,.4448-.5562,1.1117-.5562,1.1117-.1314,.2643-.4003,.4248-.6861,.4248 1.8431,0 3.1499,0 3.8405,0 0,-.5762 0,-.9603 0,-1.5365-.8313,0-2.0351,0-2.5983,0zm-3.5478,.7683c0,0 0,.3841 0,.7683 .4149,0 1.1985,0 2.304,0-.0576,0-.1168,-.0069-.1759,-.02-.3465,-.0822-.5916,-.3918-.5916,-.7483 0,-.4241-.3449,-.7683-.7683,-.7683-.4233,0-.7683,.3442-.7683,.7683z" fill="url(#linearGradient7433)"/>
</g>
<g transform="matrix(1.01285,0,0,1.01285,-280.41295,1079.718)">
<path d="m62.3483,50.6341c-.0184,-.0392-.0906,-.1828-.0906,-.1828-.1298,-.2597-.3964,-.4248-.6876,-.4248l-3.8413,0c-.4241,0-.7683,.3434-.7683,.7683l0,3.073c0,.4248 .3442,.7683 .7683,.7683l7.6826,0c.4248,0 .7683,-.3434 .7683,-.7683l0,-1.5365c0,-1.2707-1.0341,-2.3048-2.3048,-2.3048-.5916,0-1.1186,.2397-1.5265,.6077z" fill-opacity=".657"/>
<path d="m61.57,50.0233 .7683,1.5365c0,-.8489 .6884,-1.5365 1.5365,-1.5365 .8489,0 1.5365,.6876 1.5365,1.5365l0,1.5365-7.6826,0 0,-3.073 3.8413,0z" fill="url(#linearGradient7435)"/>
<path d="m63.1065,51.5599c0,.3565-.2451,.6661-.5916,.7483-.0592,.0131-.1175,.02-.1767,.02 1.1063,0 1.8892,0 2.3048,0 0,-.3841 0,-.7683 0,-.7683 0,-.4241-.3449,-.7683-.7683,-.7683-.4233,0-.7683,.3442-.7683,.7683zm-4.6096,-.7683c0,.5762 0,.9603 0,1.5365 .6914,0 1.9975,0 3.8413,0-.2858,0-.5547,-.1606-.6868,-.4248 0,0-.3334,-.6669-.5562,-1.1117-.5631,0-1.767,0-2.5983,0z" fill="url(#linearGradient7429)"/>
</g>
<g transform="matrix(1.01285,0,0,1.01285,-280.41295,1079.718)">
<path d="m66.1796,53.0995c-.2912,0-.557,.1652-.6876,.4248 0,0-.0722,.1444-.0906,.1828-.4087,-.368-.9357,-.6077-1.5265,-.6077-1.2707,0-2.3048,1.0341-2.3048,2.3048l0,1.5365c0,.4248 .3442,.7683 .7683,.7683l7.6826,0c.4248,0 .7683,-.3434 .7683,-.7683l0,-3.073c0,-.4248-.3434,-.7683-.7683,-.7683l-3.8413,0z" fill-opacity=".657"/>
<path d="m66.1796,53.0964-.7683,1.5365c0,-.8489-.6884,-1.5365-1.5365,-1.5365-.8489,0-1.5365,.6876-1.5365,1.5365l0,1.5365 7.6826,0 0,-3.073-3.8413,0z" fill="url(#linearGradient7439)"/>
<path d="m66.6544,53.8646c-.2228,.4448-.5562,1.1117-.5562,1.1117-.1321,.2643-.4003,.4248-.6868,.4248 1.8431,0 3.1499,0 3.8405,0 0,-.5762 0,-.9603 0,-1.5365-.8305,0-2.0344,0-2.5975,0zm-3.5478,.7683c0,0 0,.3841 0,.7683 .4149,0 1.1985,0 2.304,0-.0576,0-.1168,-.0069-.1759,-.02-.3465,-.0822-.5916,-.3918-.5916,-.7483 0,-.4241-.3449,-.7683-.7683,-.7683-.4233,0-.7683,.3442-.7683,.7683z" fill="url(#linearGradient7433)"/>
</g>
<g transform="matrix(1.01285,0,0,1.01285,-280.41295,1079.718)">
<path d="m62.3483,56.7802c-.0184,-.0392-.0906,-.1828-.0906,-.1828-.1298,-.2597-.3964,-.4248-.6876,-.4248l-3.8413,0c-.4241,0-.7683,.3434-.7683,.7683l0,3.073c0,.4248 .3442,.7683 .7683,.7683l7.6826,0c.4248,0 .7683,-.3434 .7683,-.7683l0,-1.5365c0,-1.2707-1.0341,-2.3048-2.3048,-2.3048-.5916,0-1.1186,.2397-1.5265,.6077z" fill-opacity=".657"/>
<path d="m61.57,56.1694 .7683,1.5365c0,-.8489 .6884,-1.5365 1.5365,-1.5365 .8489,0 1.5365,.6876 1.5365,1.5365l0,1.5365-7.6826,0 0,-3.073 3.8413,0z" fill="url(#linearGradient7443)"/>
<path d="m63.1065,57.706c0,.3565-.2451,.6661-.5916,.7483-.0592,.0131-.1175,.02-.1767,.02 1.1063,0 1.8892,0 2.3048,0 0,-.3841 0,-.7683 0,-.7683 0,-.4241-.3449,-.7683-.7683,-.7683-.4233,0-.7683,.3442-.7683,.7683zm-4.6096,-.7683c0,.5762 0,.9603 0,1.5365 .6914,0 1.9975,0 3.8413,0-.2858,0-.5547,-.1606-.6868,-.4248 0,0-.3334,-.6669-.5562,-1.1117-.5631,0-1.767,0-2.5983,0z" fill="url(#linearGradient7429)"/>
</g>
<g transform="matrix(1.01285,0,0,1.01285,-280.41295,1079.718)">
<path d="m66.1796,59.2456c-.2912,0-.557,.1652-.6876,.4248 0,0-.0722,.1444-.0906,.1828-.4087,-.368-.9357,-.6077-1.5265,-.6077-1.2707,0-2.3048,1.0341-2.3048,2.3048l0,1.5365c0,.4248 .3442,.7683 .7683,.7683l7.6826,0c.4248,0 .7683,-.3434 .7683,-.7683l0,-3.073c0,-.4248-.3434,-.7683-.7683,-.7683l-3.8413,0z" fill-opacity=".657"/>
<path d="m66.1796,59.2425-.7683,1.5365c0,-.8489-.6884,-1.5365-1.5365,-1.5365-.8489,0-1.5365,.6876-1.5365,1.5365l0,1.5365 7.6826,0 0,-3.073-3.8413,0z" fill="url(#linearGradient7447)"/>
<path d="m66.6544,60.0107c-.2228,.4448-.5562,1.1117-.5562,1.1117-.1321,.2643-.4003,.4248-.6868,.4248 1.8431,0 3.1499,0 3.8405,0 0,-.5762 0,-.9603 0,-1.5365-.8305,0-2.0344,0-2.5975,0zm-3.5478,.7683c0,0 0,.3841 0,.7683 .4149,0 1.1985,0 2.304,0-.0576,0-.1168,-.0069-.1759,-.02-.3465,-.0822-.5916,-.3918-.5916,-.7483 0,-.4241-.3449,-.7683-.7683,-.7683-.4233,0-.7683,.3442-.7683,.7683z" fill="url(#linearGradient7433)"/>
</g>
<g transform="matrix(1.01285,0,0,1.01285,-280.41295,1079.718)">
<path d="m62.3483,62.9263c-.0184,-.0392-.0906,-.1828-.0906,-.1828-.1298,-.2597-.3964,-.4248-.6876,-.4248l-3.8413,0c-.4241,0-.7683,.3434-.7683,.7683l0,3.073c0,.4248 .3442,.7683 .7683,.7683l7.6826,0c.4248,0 .7683,-.3434 .7683,-.7683l0,-1.5365c0,-1.2707-1.0341,-2.3048-2.3048,-2.3048-.5916,0-1.1186,.2397-1.5265,.6077z" fill-opacity=".657"/>
<path d="m61.57,62.3155 .7683,1.5365c0,-.8489 .6884,-1.5365 1.5365,-1.5365 .8489,0 1.5365,.6876 1.5365,1.5365l0,1.5365-7.6826,0 0,-3.073 3.8413,0z" fill="url(#linearGradient7451)"/>
<path d="m63.1065,63.852c0,.3565-.2451,.6661-.5916,.7483-.0592,.0131-.1175,.02-.1767,.02 1.1063,0 1.8892,0 2.3048,0 0,-.3841 0,-.7683 0,-.7683 0,-.4241-.3449,-.7683-.7683,-.7683-.4233,0-.7683,.3442-.7683,.7683zm-4.6096,-.7683c0,.5762 0,.9603 0,1.5365 .6914,0 1.9975,0 3.8413,0-.2858,0-.5547,-.1606-.6868,-.4248 0,0-.3334,-.6669-.5562,-1.1117-.5631,0-1.767,0-2.5983,0z" fill="url(#linearGradient7429)"/>
</g>
<g transform="matrix(1.01285,0,0,1.01285,-280.41295,1079.718)">
<path d="m66.1796,65.3916c-.2912,0-.557,.1652-.6876,.4248 0,0-.0722,.1444-.0906,.1828-.4087,-.368-.9357,-.6077-1.5265,-.6077-1.2707,0-2.3048,1.0341-2.3048,2.3048l0,1.5365c0,.4248 .3442,.7683 .7683,.7683l7.6826,0c.4248,0 .7683,-.3434 .7683,-.7683l0,-3.073c0,-.4248-.3434,-.7683-.7683,-.7683l-3.8413,0z" fill-opacity=".657"/>
<path d="m66.1796,65.3886-.7683,1.5365c0,-.8489-.6884,-1.5365-1.5365,-1.5365-.8489,0-1.5365,.6876-1.5365,1.5365l0,1.5365 7.6826,0 0,-3.073-3.8413,0z" fill="url(#linearGradient7455)"/>
<path d="m66.6544,66.1568c-.2228,.4448-.5562,1.1117-.5562,1.1117-.1321,.2643-.4003,.4248-.6868,.4248 1.8431,0 3.1499,0 3.8405,0 0,-.5762 0,-.9603 0,-1.5365-.8305,0-2.0344,0-2.5975,0zm-3.5478,.7683c0,0 0,.3841 0,.7683 .4149,0 1.1985,0 2.304,0-.0576,0-.1168,-.0069-.1759,-.02-.3465,-.0822-.5916,-.3918-.5916,-.7483 0,-.4241-.3449,-.7683-.7683,-.7683-.4233,0-.7683,.3442-.7683,.7683z" fill="url(#linearGradient7433)"/>
</g>
<g transform="matrix(1.01285,0,0,1.01285,-280.41295,1079.718)">
<path d="m62.3483,69.6341c-.0184,-.0392-.0906,-.1828-.0906,-.1828-.1298,-.2597-.3964,-.4249-.6876,-.4249l-3.8413,0c-.4241,0-.7683,.3434-.7683,.7683l0,3.073c0,.4249 .3442,.7683 .7683,.7683l7.6826,0c.4248,0 .7683,-.3434 .7683,-.7683l0,-1.5365c0,-1.2707-1.0341,-2.3048-2.3048,-2.3048-.5916,0-1.1186,.2397-1.5265,.6077z" fill-opacity=".657"/>
<path d="m61.57,69.0233 .7683,1.5365c0,-.8489 .6884,-1.5365 1.5365,-1.5365 .8489,0 1.5365,.6876 1.5365,1.5365l0,1.5365-7.6826,0 0,-3.073 3.8413,0z" fill="url(#linearGradient7459)"/>
<path d="m63.1065,70.5599c0,.3565-.2451,.6661-.5916,.7483-.0592,.0131-.1175,.02-.1767,.02 1.1063,0 1.8892,0 2.3048,0 0,-.3841 0,-.7683 0,-.7683 0,-.4241-.3449,-.7683-.7683,-.7683-.4233,0-.7683,.3442-.7683,.7683zm-4.6096,-.7683c0,.5762 0,.9603 0,1.5365 .6914,0 1.9975,0 3.8413,0-.2858,0-.5547,-.1606-.6868,-.4249 0,0-.3334,-.6669-.5562,-1.1117-.5631,0-1.767,0-2.5983,0z" fill="url(#linearGradient7461)"/>
</g>
<g transform="matrix(1.01285,0,0,1.01285,-280.41295,1079.718)">
<path d="m66.1796,72.0995c-.2912,0-.557,.1652-.6876,.4249 0,0-.0722,.1444-.0906,.1829-.4087,-.368-.9357,-.6077-1.5265,-.6077-1.2707,0-2.3048,1.0341-2.3048,2.3048l0,1.5365c0,.4249 .3442,.7683 .7683,.7683l7.6826,0c.4248,0 .7683,-.3434 .7683,-.7683l0,-3.073c0,-.4249-.3434,-.7683-.7683,-.7683l-3.8413,0z" fill-opacity=".657"/>
<path d="m66.1796,72.0964-.7683,1.5365c0,-.8489-.6884,-1.5365-1.5365,-1.5365-.8489,0-1.5365,.6876-1.5365,1.5365l0,1.5365 7.6826,0 0,-3.073-3.8413,0z" fill="url(#linearGradient7463)"/>
<path d="m66.6544,72.8646c-.2228,.4448-.5562,1.1117-.5562,1.1117-.1321,.2643-.4003,.4249-.6868,.4249 1.8431,0 3.1499,0 3.8405,0 0,-.5762 0,-.9603 0,-1.5365-.8305,0-2.0344,0-2.5975,0zm-3.5478,.7683c0,0 0,.3841 0,.7683 .4149,0 1.1985,0 2.304,0-.0576,0-.1168,-.0069-.1759,-.02-.3465,-.0822-.5916,-.3918-.5916,-.7483 0,-.4241-.3449,-.7683-.7683,-.7683-.4233,0-.7683,.3442-.7683,.7683z" fill="url(#linearGradient7465)"/>
</g>
<g transform="matrix(1.01285,0,0,1.01285,-280.41295,1079.718)">
<path d="m62.3483,75.7802c-.0184,-.0392-.0906,-.1829-.0906,-.1829-.1298,-.2597-.3964,-.4248-.6876,-.4248l-3.8413,0c-.4241,0-.7683,.3434-.7683,.7683l0,3.073c0,.4249 .3442,.7683 .7683,.7683l7.6826,0c.4248,0 .7683,-.3434 .7683,-.7683l0,-1.5365c0,-1.2707-1.0341,-2.3048-2.3048,-2.3048-.5916,0-1.1186,.2397-1.5265,.6077z" fill-opacity=".657"/>
<path d="m61.57,75.1694 .7683,1.5365c0,-.8489 .6884,-1.5365 1.5365,-1.5365 .8489,0 1.5365,.6876 1.5365,1.5365l0,1.5365-7.6826,0 0,-3.073 3.8413,0z" fill="url(#linearGradient7467)"/>
<path d="m63.1065,76.706c0,.3565-.2451,.6661-.5916,.7483-.0592,.0131-.1175,.02-.1767,.02 1.1063,0 1.8892,0 2.3048,0 0,-.3841 0,-.7683 0,-.7683 0,-.4241-.3449,-.7683-.7683,-.7683-.4233,0-.7683,.3442-.7683,.7683zm-4.6096,-.7683c0,.5762 0,.9603 0,1.5365 .6914,0 1.9975,0 3.8413,0-.2858,0-.5547,-.1606-.6868,-.4249 0,0-.3334,-.6669-.5562,-1.1117-.5631,0-1.767,0-2.5983,0z" fill="url(#linearGradient7461)"/>
</g>
<g transform="matrix(1.01285,0,0,1.01285,-280.41295,1079.718)">
<path d="m66.1796,78.2455c-.2912,0-.557,.1652-.6876,.4249 0,0-.0722,.1444-.0906,.1828-.4087,-.368-.9357,-.6077-1.5265,-.6077-1.2707,0-2.3048,1.0341-2.3048,2.3048l0,1.5365c0,.4248 .3442,.7683 .7683,.7683l7.6826,0c.4248,0 .7683,-.3434 .7683,-.7683l0,-3.073c0,-.4249-.3434,-.7683-.7683,-.7683l-3.8413,0z" fill-opacity=".657"/>
<path d="M66.1796,78.2425 65.4113,79.779c0,-.8489-.6884,-1.5365-1.5365,-1.5365-.8489,0-1.5365,.6876-1.5365,1.5365l0,1.5365 7.6826,0 0,-3.073-3.8413,0z" fill="url(#linearGradient7471)"/>
<path d="m66.6544,79.0107c-.2228,.4448-.5562,1.1117-.5562,1.1117-.1321,.2643-.4003,.4249-.6868,.4249 1.8431,0 3.1499,0 3.8405,0 0,-.5762 0,-.9603 0,-1.5365-.8305,0-2.0344,0-2.5975,0zM63.1065,79.779c0,0 0,.3841 0,.7683 .4149,0 1.1985,0 2.304,0-.0576,0-.1168,-.0069-.1759,-.02-.3465,-.0822-.5916,-.3918-.5916,-.7483 0,-.4241-.3449,-.7683-.7683,-.7683-.4233,0-.7683,.3442-.7683,.7683z" fill="url(#linearGradient7465)"/>
</g>
<g transform="matrix(1.01285,0,0,1.01285,-280.41295,1079.718)">
<path d="m62.3483,81.9263c-.0184,-.0392-.0906,-.1829-.0906,-.1829-.1298,-.2597-.3964,-.4249-.6876,-.4249l-3.8413,0c-.4241,0-.7683,.3434-.7683,.7683l0,3.073c0,.4249 .3442,.7683 .7683,.7683l7.6826,0c.4248,0 .7683,-.3434 .7683,-.7683l0,-1.5365c0,-1.2707-1.0341,-2.3048-2.3048,-2.3048-.5916,0-1.1186,.2397-1.5265,.6077z" fill-opacity=".657"/>
<path d="m61.57,81.3155 .7683,1.5365c0,-.8489 .6884,-1.5365 1.5365,-1.5365 .8489,0 1.5365,.6876 1.5365,1.5365l0,1.5365-7.6826,0 0,-3.073 3.8413,0z" fill="url(#linearGradient7475)"/>
<path d="m63.1065,82.852c0,.3565-.2451,.6661-.5916,.7483-.0592,.0131-.1175,.02-.1767,.02 1.1063,0 1.8892,0 2.3048,0 0,-.3841 0,-.7683 0,-.7683 0,-.4241-.3449,-.7683-.7683,-.7683-.4233,0-.7683,.3442-.7683,.7683zm-4.6096,-.7683c0,.5762 0,.9603 0,1.5365 .6914,0 1.9975,0 3.8413,0-.2858,0-.5547,-.1606-.6868,-.4248 0,0-.3334,-.6669-.5562,-1.1117-.5631,0-1.767,0-2.5983,0z" fill="url(#linearGradient7461)"/>
</g>
<g transform="matrix(1.01285,0,0,1.01285,-280.41295,1079.718)">
<path d="m66.1796,84.3916c-.2912,0-.557,.1652-.6876,.4249 0,0-.0722,.1444-.0906,.1828-.4087,-.368-.9357,-.6077-1.5265,-.6077-1.2707,0-2.3048,1.0341-2.3048,2.3048l0,1.5365c0,.4249 .3442,.7683 .7683,.7683l7.6826,0c.4248,0 .7683,-.3434 .7683,-.7683l0,-3.073c0,-.4249-.3434,-.7683-.7683,-.7683l-3.8413,0z" fill-opacity=".657"/>
<path d="m66.1796,84.3886-.7683,1.5365c0,-.8489-.6884,-1.5365-1.5365,-1.5365-.8489,0-1.5365,.6876-1.5365,1.5365l0,1.5365 7.6826,0 0,-3.073-3.8413,0z" fill="url(#linearGradient7479)"/>
<path d="m66.6544,85.1568c-.2228,.4448-.5562,1.1117-.5562,1.1117-.1321,.2643-.4003,.4249-.6868,.4249 1.8431,0 3.1499,0 3.8405,0 0,-.5762 0,-.9603 0,-1.5365-.8305,0-2.0344,0-2.5975,0zm-3.5478,.7683c0,0 0,.3841 0,.7683 .4149,0 1.1985,0 2.304,0-.0576,0-.1168,-.0069-.1759,-.02-.3465,-.0822-.5916,-.3918-.5916,-.7483 0,-.4241-.3449,-.7683-.7683,-.7683-.4233,0-.7683,.3442-.7683,.7683z" fill="url(#linearGradient7465)"/>
</g>
<g transform="matrix(1.01285,0,0,1.01285,-280.41295,1079.718)">
<path d="m62.3483,87.9263c-.0184,-.0392-.0906,-.1829-.0906,-.1829-.1298,-.2597-.3964,-.4249-.6876,-.4249l-3.8413,0c-.4241,0-.7683,.3434-.7683,.7683l0,3.073c0,.4249 .3442,.7683 .7683,.7683l7.6826,0c.4248,0 .7683,-.3434 .7683,-.7683l0,-1.5365c0,-1.2707-1.0341,-2.3048-2.3048,-2.3048-.5916,0-1.1186,.2397-1.5265,.6077z" fill-opacity=".657"/>
<path d="m61.57,87.3155 .7683,1.5365c0,-.8489 .6884,-1.5365 1.5365,-1.5365 .8489,0 1.5365,.6876 1.5365,1.5365l0,1.5365-7.6826,0 0,-3.073 3.8413,0z" fill="url(#linearGradient7484)"/>
<path d="m63.1065,88.852c0,.3565-.2451,.6661-.5916,.7483-.0592,.0131-.1175,.02-.1767,.02 1.1063,0 1.8892,0 2.3048,0 0,-.3841 0,-.7683 0,-.7683 0,-.4241-.3449,-.7683-.7683,-.7683-.4233,0-.7683,.3442-.7683,.7683zm-4.6096,-.7683c0,.5762 0,.9603 0,1.5365 .6914,0 1.9975,0 3.8413,0-.2858,0-.5547,-.1606-.6868,-.4248 0,0-.3334,-.6669-.5562,-1.1117-.5631,0-1.767,0-2.5983,0z" fill="url(#linearGradient7486)"/>
</g>
<g transform="matrix(1.01285,0,0,1.01285,-280.41295,1079.718)">
<path d="m66.1796,90.3916c-.2912,0-.557,.1652-.6876,.4249 0,0-.0722,.1444-.0906,.1828-.4087,-.368-.9357,-.6077-1.5265,-.6077-1.2707,0-2.3048,1.0341-2.3048,2.3048l0,1.5365c0,.4249 .3442,.7683 .7683,.7683l7.6826,0c.4248,0 .7683,-.3434 .7683,-.7683l0,-3.073c0,-.4249-.3434,-.7683-.7683,-.7683l-3.8413,0z" fill-opacity=".657"/>
<path d="m66.1796,90.3886-.7683,1.5365c0,-.8489-.6884,-1.5365-1.5365,-1.5365-.8489,0-1.5365,.6876-1.5365,1.5365l0,1.5365 7.6826,0 0,-3.073-3.8413,0z" fill="url(#linearGradient7488)"/>
<path d="m66.6544,91.1568c-.2228,.4448-.5562,1.1117-.5562,1.1117-.1321,.2643-.4003,.4249-.6868,.4249 1.8431,0 3.1499,0 3.8405,0 0,-.5762 0,-.9603 0,-1.5365-.8305,0-2.0344,0-2.5975,0zm-3.5478,.7683c0,0 0,.3841 0,.7683 .4149,0 1.1985,0 2.304,0-.0576,0-.1168,-.0069-.1759,-.02-.3465,-.0822-.5916,-.3918-.5916,-.7483 0,-.4241-.3449,-.7683-.7683,-.7683-.4233,0-.7683,.3442-.7683,.7683z" fill="url(#linearGradient7490)"/>
</g>
<g transform="matrix(1.01285,0,0,1.01285,-280.41295,1079.718)">
<path d="m62.3483,93.9263c-.0184,-.0392-.0906,-.1829-.0906,-.1829-.1298,-.2597-.3964,-.4249-.6876,-.4249l-3.8413,0c-.4241,0-.7683,.3434-.7683,.7683l0,3.073c0,.4249 .3442,.7683 .7683,.7683l7.6826,0c.4248,0 .7683,-.3434 .7683,-.7683l0,-1.5365c0,-1.2707-1.0341,-2.3048-2.3048,-2.3048-.5916,0-1.1186,.2397-1.5265,.6077z" fill-opacity=".657"/>
<path d="m61.57,93.3155 .7683,1.5365c0,-.8489 .6884,-1.5365 1.5365,-1.5365 .8489,0 1.5365,.6876 1.5365,1.5365l0,1.5365-7.6826,0 0,-3.073 3.8413,0z" fill="url(#linearGradient7492)"/>
<path d="m63.1065,94.852c0,.3565-.2451,.6661-.5916,.7483-.0592,.0131-.1175,.02-.1767,.02 1.1063,0 1.8892,0 2.3048,0 0,-.3841 0,-.7683 0,-.7683 0,-.4241-.3449,-.7683-.7683,-.7683-.4233,0-.7683,.3442-.7683,.7683zm-4.6096,-.7683c0,.5762 0,.9603 0,1.5365 .6914,0 1.9975,0 3.8413,0-.2858,0-.5547,-.1606-.6868,-.4248 0,0-.3334,-.6669-.5562,-1.1117-.5631,0-1.767,0-2.5983,0z" fill="url(#linearGradient7494)"/>
</g>
<path d="m-171.1123,1109.6335c-2.2563,.022-5.1946,.1447-8.5086,.5417l13.5755,13.5755 0,-13.9579c0,0-1.89,-.1898-5.0669,-.1593z" fill-rule="evenodd" opacity=".207"/>
<path d="m-263.942,1141.2141 0,23.072 17.1447,17.1446 23.072,0-40.2167,-40.2166z" fill-rule="evenodd" opacity=".207"/>
<path d="m-259.7036,1109.4104c-2.6823,.082-4.2384,.3824-4.2384,.3824l0,8.3493 63.1453,63.1293 23.3259,.082-71.2385,-71.0831c-.0108,0-.0211,0-.0319,0-4.4772,-.8007-8.2865,-.9419-10.9624,-.8604z" fill-rule="evenodd" opacity=".207"/>
<path d="m-259.7036,1113.3248c-2.6823,.082-4.2384,.3824-4.2384,.3824l0,5.921c0,0 24.9518,-4.5256 46.9088,17.4314 20.5213,-20.5213 50.9878,-17.4314 50.9878,-17.4314l0,-5.921c0,0-30.4665,-3.0898-50.9878,17.4315-16.4678,-16.4678-34.6235,-18.059-42.6705,-17.8139z" fill="#fff" opacity=".5"/>
<path d="m-259.7036,1113.3248c-2.6823,.082-4.2384,.3824-4.2384,.3824l0,1.921c0,0 24.9518,-4.5256 46.9088,17.4314 20.5213,-20.5213 50.9878,-17.4314 50.9878,-17.4314l0,-1.921c0,0-30.4665,-3.0898-50.9878,17.4315-16.4678,-16.4678-34.6235,-18.059-42.6705,-17.8139z" fill="#fff" opacity=".5"/>
<path d="m-259.7036,1110.5709c-2.6823,.082-4.2384,.3824-4.2384,.3824l0,2.5462c0,0 24.9518,-4.5256 46.9088,17.4315 20.5213,-20.5213 50.9878,-17.4315 50.9878,-17.4315l0,-2.5462c0,0-30.4665,-3.0899-50.9878,17.4315-16.4678,-16.4678-34.6235,-18.0591-42.6705,-17.8139z" fill="#036791"/>
<g transform="matrix(.78232,-.20962,.25466,.95039,-270.16856,1110.9745)">
<path d="m61.3426,30.2975c-.5286,.2643-.892,.7145-1.0925,1.2261-.0338,-.0254-.1629,-.1229-.1629,-.1229-.2328,-.1744-.5439,-.2013-.8044,-.0707l-3.4341,1.7209c-.1821,.0899-.3204,.2505-.3849,.4441-.0638,.1936-.0484,.4033 .0423,.587l1.3767,2.7473c.1905,.378 .6515,.5324 1.031,.3419l6.8683,-3.4418c.3788,-.1905 .5324,-.6515 .3419,-1.031l-.6884,-1.3744c-.2758,-.5508-.7498,-.9603-1.3337,-1.1555-.5839,-.1936-1.2092,-.1483-1.7593,.1291z" fill-opacity=".655"/>
<path d="m59.6263,31.2447 1.376,1.0295c-.3803,-.759-.073,-1.681 .6853,-2.062 .759,-.3811 1.6817,-.0753 2.062,.6853l.6884,1.3737-6.8683,3.4418-1.3775,-2.7473 3.4341,-1.7209z" fill="url(#linearGradient7496)"/>
<path d="m62.0317,30.8983 0,0c-.3788,.1898-.5324,.653-.3434,1.031 .1598,.3188 .0791,.7053-.1936,.9342-.2735,.2282-.6684,.2389-.9534,.0254 0,0-.5969,-.4471-.9957,-.7452-.5032,.252-1.5795,.7913-2.3225,1.1647 .2581,.5147 .4302,.8581 .6884,1.3737 .9895,-.4963 4.5059,-2.2579 5.4946,-2.7542-.1721,-.3426-.3442,-.6868-.3442,-.6868-.0922,-.1844-.2497,-.3211-.4441,-.3857-.1944,-.0638-.4026,-.0492-.5862,.043z" fill="url(#linearGradient7498)"/>
<path d="m57.5881,25.0641c-.4679,.3672-.7022,.8912-.7944,1.4359-.0515,-.0246-.2159,-.1014-.2159,-.1014-.2635,-.1245-.5739,-.0891-.8028,.0906l-3.0193,2.3724c-.3334,.2627-.391,.746-.1291,1.0786l1.8991,2.4169c.126,.159 .3104,.2627 .5124,.2881 .2028,.0238 .4064,-.033 .5662,-.159l6.0393,-4.7494c.1598,-.126 .2635,-.3104 .2881,-.5132 .0238,-.2028-.033,-.4056-.159,-.5662l-.9496,-1.2069c-.3811,-.484-.9273,-.7913-1.5381,-.8643-.61,-.0722-1.2131,.0968-1.6971,.4779z" fill-opacity=".657"/>
<path d="m56.2506,26.321 1.5542,.7329c-.5247,-.6684-.4095,-1.6333 .2581,-2.158 .6669,-.5247 1.6326,-.4095 2.158,.2589l.9496,1.2069-6.0393,4.7494-1.8991,-2.4169 3.0185,-2.3732z" fill="url(#linearGradient7500)"/>
<path d="m58.5377,25.4997c0,7.68e-4 0,7.68e-4 0,0-.3334,.262-.391,.7467-.1291,1.0802 .2197,.2804 .2182,.6745-.0038,.9526-.222,.2789-.6062,.368-.9281,.2159 0,0-.6745,-.3181-1.1247,-.5301-.4425,.348-1.3882,1.0917-2.042,1.6049 .3557,.4533 .5931,.7552 .9496,1.2085 .8697,-.6845 3.9619,-3.1153 4.8316,-3.7991-.2374,-.3012-.4748,-.6031-.4748,-.6031-.1275,-.1621-.3096,-.2643-.5132,-.2889-.2028,-.0238-.4041,.0323-.5654,.159z" fill="url(#linearGradient7502)"/>
<path d="m53.0715,20.0896c-.6085,.0899-1.1462,.4118-1.5135,.9058-.3058,.4118-.454,.8935-.454,1.3713 0,.0761 .0438,.1444 .0507,.2205-.0499,-.0092-.222,-.0392-.222,-.0392-.2866,-.0507-.5762,.0645-.7506,.2989l-2.2902,3.0823c-.2528,.3403-.1821,.8213 .1583,1.0748l2.4669,1.8331c.1636,.1214 .3688,.1744 .5708,.1444 .2013,-.03 .3834,-.1383 .5047,-.3019l4.5811,-6.1691c.1214,-.1636 .1729,-.3688 .1437,-.5708-.03,-.2013-.1383,-.3834-.3027,-.5047L54.7817,20.5198C54.2877,20.1526 53.6808,19.9997 53.0715,20.0896z" fill-opacity=".657"/>
<path d="m50.7998,22.5327 1.6917,.2989c-.6814,-.5078-.8228,-1.4689-.3165,-2.1496 .5063,-.6814 1.4681,-.8236 2.1496,-.3173l1.2331,.915-4.5811,6.1684-2.4669,-1.8331 2.2902,-3.0823z" fill="url(#linearGradient7504)"/>
<path d="m53.2959,20.8379c-.2028,.03-.3818,.1368-.5047,.3019l0,0c-.2528,.3396-.1813,.822 .159,1.0756 .2858,.2128 .3872,.5931 .2466,.9204-.1414,.3265-.4886,.514-.8389,.4517 0,0-.7352,-.1298-1.2246,-.2167-.3357,.4517-1.0533,1.4174-1.5488,2.0843 .4625,.3434 .7706,.5731 1.2331,.9165 .6599,-.8881 3.0047,-4.0457 3.6646,-4.9338-.3081,-.2282-.6154,-.4571-.6154,-.4571-.1652,-.1214-.368,-.1729-.5708,-.1429z" fill="url(#linearGradient7506)"/>
<path d="m46.423,16.637c-.5785,.209-1.0402,.6323-1.2999,1.1893-.1475,.315-.2182,.6469-.2182,.9734 0,.2274 .0377,.4517 .1029,.6676-.0369,7.69e-4-.1882,.0046-.1882,.0046-.2904,.0077-.5524,.1782-.6753,.4417l-1.6302,3.4771c-.0492,.1053-.073,.2167-.073,.3257 0,.2881 .1636,.5654 .4425,.696l2.7826,1.3045c.1844,.0868 .3957,.096 .5877,.0269 .1921,-.0691 .348,-.212 .4341,-.3964l3.2597,-6.9581c.086,-.1844 .096,-.3964 .0269,-.5877-.0699,-.1913-.212,-.348-.3972,-.4341L48.1869,16.7169c-.557,-.2612-1.1839,-.2896-1.7639,-.0799z" fill-opacity=".657"/>
<path d="m44.8404,19.4688 1.7178,-.0446c-.769,-.3611-1.1001,-1.2753-.7391,-2.0436 .3595,-.7683 1.2738,-1.1001 2.0436,-.7383l1.3906,.6507-3.2597,6.9581-2.7826,-1.3045 1.6295,-3.4779z" fill="url(#linearGradient7508)"/>
<path d="m46.9469,17.31c-.1921,.0699-.3457,.2097-.4318,.3949 0,7.68e-4 0,.0015-7.68e-4,.0015-.0492,.1053-.0722,.2151-.0722,.3242 0,.2889 .1636,.567 .4433,.6983 .2727,.1283 .441,.4018 .441,.6945 0,.0522-.0054,.1053-.0161,.1583-.073,.3488-.3757,.6008-.7322,.61 0,0-.7468,.0192-1.2438,.0323-.2389,.5094-.7498,1.5995-1.1025,2.3516 .5216,.2443 .8689,.4079 1.3913,.6523 .4694,-1.0018 2.1381,-4.5635 2.6075,-5.5661-.3473,-.1621-.6945,-.325-.6945,-.325-.1875,-.0876-.3964,-.0968-.5893,-.0269z" fill="url(#linearGradient7510)"/>
</g>
<g transform="matrix(-.80991,0,0,.98392,-168.23045,1100.2742)">
<path d="m61.3426,30.2975c-.5286,.2643-.892,.7145-1.0925,1.2261-.0338,-.0254-.1629,-.1229-.1629,-.1229-.2328,-.1744-.5439,-.2013-.8044,-.0707l-3.4341,1.7209c-.1821,.0899-.3204,.2505-.3849,.4441-.0638,.1936-.0484,.4033 .0423,.587l1.3767,2.7473c.1905,.378 .6515,.5324 1.031,.3419l6.8683,-3.4418c.3788,-.1905 .5324,-.6515 .3419,-1.031l-.6884,-1.3744c-.2758,-.5508-.7498,-.9603-1.3337,-1.1555-.5839,-.1936-1.2092,-.1483-1.7593,.1291z" fill-opacity=".655"/>
<path d="m59.6263,31.2447 1.376,1.0295c-.3803,-.759-.073,-1.681 .6853,-2.062 .759,-.3811 1.6817,-.0753 2.062,.6853l.6884,1.3737-6.8683,3.4418-1.3775,-2.7473 3.4341,-1.7209z" fill="url(#linearGradient7496)"/>
<path d="m62.0317,30.8983 0,0c-.3788,.1898-.5324,.653-.3434,1.031 .1598,.3188 .0791,.7053-.1936,.9342-.2735,.2282-.6684,.2389-.9534,.0254 0,0-.5969,-.4471-.9957,-.7452-.5032,.252-1.5795,.7913-2.3225,1.1647 .2581,.5147 .4302,.8581 .6884,1.3737 .9895,-.4963 4.5059,-2.2579 5.4946,-2.7542-.1721,-.3426-.3442,-.6868-.3442,-.6868-.0922,-.1844-.2497,-.3211-.4441,-.3857-.1944,-.0638-.4026,-.0492-.5862,.043z" fill="url(#linearGradient7498)"/>
<path d="m57.5881,25.0641c-.4679,.3672-.7022,.8912-.7944,1.4359-.0515,-.0246-.2159,-.1014-.2159,-.1014-.2635,-.1245-.5739,-.0891-.8028,.0906l-3.0193,2.3724c-.3334,.2627-.391,.746-.1291,1.0786l1.8991,2.4169c.126,.159 .3104,.2627 .5124,.2881 .2028,.0238 .4064,-.033 .5662,-.159l6.0393,-4.7494c.1598,-.126 .2635,-.3104 .2881,-.5132 .0238,-.2028-.033,-.4056-.159,-.5662l-.9496,-1.2069c-.3811,-.484-.9273,-.7913-1.5381,-.8643-.61,-.0722-1.2131,.0968-1.6971,.4779z" fill-opacity=".657"/>
<path d="m56.2506,26.321 1.5542,.7329c-.5247,-.6684-.4095,-1.6333 .2581,-2.158 .6669,-.5247 1.6326,-.4095 2.158,.2589l.9496,1.2069-6.0393,4.7494-1.8991,-2.4169 3.0185,-2.3732z" fill="url(#linearGradient7500)"/>
<path d="m58.5377,25.4997c0,7.68e-4 0,7.68e-4 0,0-.3334,.262-.391,.7467-.1291,1.0802 .2197,.2804 .2182,.6745-.0038,.9526-.222,.2789-.6062,.368-.9281,.2159 0,0-.6745,-.3181-1.1247,-.5301-.4425,.348-1.3882,1.0917-2.042,1.6049 .3557,.4533 .5931,.7552 .9496,1.2085 .8697,-.6845 3.9619,-3.1153 4.8316,-3.7991-.2374,-.3012-.4748,-.6031-.4748,-.6031-.1275,-.1621-.3096,-.2643-.5132,-.2889-.2028,-.0238-.4041,.0323-.5654,.159z" fill="url(#linearGradient7502)"/>
<path d="m53.0715,20.0896c-.6085,.0899-1.1462,.4118-1.5135,.9058-.3058,.4118-.454,.8935-.454,1.3713 0,.0761 .0438,.1444 .0507,.2205-.0499,-.0092-.222,-.0392-.222,-.0392-.2866,-.0507-.5762,.0645-.7506,.2989l-2.2902,3.0823c-.2528,.3403-.1821,.8213 .1583,1.0748l2.4669,1.8331c.1636,.1214 .3688,.1744 .5708,.1444 .2013,-.03 .3834,-.1383 .5047,-.3019l4.5811,-6.1691c.1214,-.1636 .1729,-.3688 .1437,-.5708-.03,-.2013-.1383,-.3834-.3027,-.5047L54.7817,20.5198C54.2877,20.1526 53.6808,19.9997 53.0715,20.0896z" fill-opacity=".657"/>
<path d="m50.7998,22.5327 1.6917,.2989c-.6814,-.5078-.8228,-1.4689-.3165,-2.1496 .5063,-.6814 1.4681,-.8236 2.1496,-.3173l1.2331,.915-4.5811,6.1684-2.4669,-1.8331 2.2902,-3.0823z" fill="url(#linearGradient7504)"/>
<path d="m53.2959,20.8379c-.2028,.03-.3818,.1368-.5047,.3019l0,0c-.2528,.3396-.1813,.822 .159,1.0756 .2858,.2128 .3872,.5931 .2466,.9204-.1414,.3265-.4886,.514-.8389,.4517 0,0-.7352,-.1298-1.2246,-.2167-.3357,.4517-1.0533,1.4174-1.5488,2.0843 .4625,.3434 .7706,.5731 1.2331,.9165 .6599,-.8881 3.0047,-4.0457 3.6646,-4.9338-.3081,-.2282-.6154,-.4571-.6154,-.4571-.1652,-.1214-.368,-.1729-.5708,-.1429z" fill="url(#linearGradient7506)"/>
<path d="m46.423,16.637c-.5785,.209-1.0402,.6323-1.2999,1.1893-.1475,.315-.2182,.6469-.2182,.9734 0,.2274 .0377,.4517 .1029,.6676-.0369,7.69e-4-.1882,.0046-.1882,.0046-.2904,.0077-.5524,.1782-.6753,.4417l-1.6302,3.4771c-.0492,.1053-.073,.2167-.073,.3257 0,.2881 .1636,.5654 .4425,.696l2.7826,1.3045c.1844,.0868 .3957,.096 .5877,.0269 .1921,-.0691 .348,-.212 .4341,-.3964l3.2597,-6.9581c.086,-.1844 .096,-.3964 .0269,-.5877-.0699,-.1913-.212,-.348-.3972,-.4341L48.1869,16.7169c-.557,-.2612-1.1839,-.2896-1.7639,-.0799z" fill="#4a4a4a"/>
<path d="m44.8404,19.4688 1.7178,-.0446c-.769,-.3611-1.1001,-1.2753-.7391,-2.0436 .3595,-.7683 1.2738,-1.1001 2.0436,-.7383l1.3906,.6507-3.2597,6.9581-2.7826,-1.3045 1.6295,-3.4779z" fill="url(#linearGradient7508)"/>
<path d="m46.9469,17.31c-.1921,.0699-.3457,.2097-.4318,.3949 0,7.68e-4 0,.0015-7.68e-4,.0015-.0492,.1053-.0722,.2151-.0722,.3242 0,.2889 .1636,.567 .4433,.6983 .2727,.1283 .441,.4018 .441,.6945 0,.0522-.0054,.1053-.0161,.1583-.073,.3488-.3757,.6008-.7322,.61 0,0-.7468,.0192-1.2438,.0323-.2389,.5094-.7498,1.5995-1.1025,2.3516 .5216,.2443 .8689,.4079 1.3913,.6523 .4694,-1.0018 2.1381,-4.5635 2.6075,-5.5661-.3473,-.1621-.6945,-.325-.6945,-.325-.1875,-.0876-.3964,-.0968-.5893,-.0269z" fill="url(#linearGradient7510)"/>
<path d="m40.0948,14.8109c-.5316,.3096-.9119,.8074-1.0687,1.4028-.0522,.1967-.0776,.3957-.0776,.5939 0,.3611 .1129,.7091 .2812,1.0364-.0446,.0092-.2074,.043-.2074,.043-.285,.0592-.5117,.2743-.5862,.5555l-.9818,3.7122c-.0169,.0661-.0261,.1321-.0261,.1967 0,.3403 .2274,.6515 .5724,.7421l2.9709,.7859c.1967,.0522 .4064,.0231 .5831,-.0791 .1759,-.1022 .3042,-.2704 .3565,-.4679l1.9637,-7.4283c.0522,-.1967 .0238,-.4064-.0791,-.5823-.1029,-.1759-.2712,-.3042-.4679,-.3565l-1.4843,-.3918c-.5946,-.1567-1.2169,-.073-1.7486,.2374z" fill="#4a4a4a"/>
<path d="m39.179,17.8678 1.6817,-.3511C40.0395,17.2993 39.5509,16.4588 39.7683,15.6383c.2159,-.8205 1.0564,-1.3099 1.8784,-1.0917l1.485,.391-1.9637,7.4283-2.9709,-.7859 .9818,-3.7122z" fill="url(#linearGradient7528)"/>
<path d="m40.8677,15.3671c-.1767,.1029-.3035,.2689-.3557,.4671l0,7.68e-4c-.0177,.0653-.0261,.1321-.0261,.1982 0,.1337 .0353,.2658 .1045,.3841 .1029,.1775 .2697,.3042 .4679,.3565 .3373,.0899 .5716,.3949 .5716,.7421 0,.0069 0,.0138 0,.0207-.0092,.3557-.262,.6584-.6108,.7314 0,0-.7306,.1521-1.2177,.2543-.1437,.5439-.4517,1.7071-.6638,2.5107 .557,.1475 .9281,.2458 1.485,.3933 .2827,-1.0702 1.2876,-4.8723 1.5703,-5.9417-.3703,-.0976-.7406,-.1959-.7406,-.1959-.2005,-.053-.4072,-.0254-.5846,.0784z" fill="url(#linearGradient7530)"/>
</g>
<g transform="matrix(1.29786,0,0,1.10134,-297.87706,1092.971)">
<path d="m63.8679,28.512 0,0c0,0-7.69e-4,0-.0061,0-3.6684,0-6.6992,3.1891-6.8982,7.2608-.0023,.0376-.0031,.0745-.0031,.1122 0,.7959 .4118,1.5396 1.0925,1.9614 .1506,.093 .2989,.2789 .4441,.4686 0,.5562 0,18.7341 0,18.7341 0,1.2707 1.0341,2.3048 2.3048,2.3048l6.1461,0c1.2707,0 2.3048,-1.0341 2.3048,-2.3048 0,0 0,-18.2048 0,-18.7679 .1375,-.1744 .2766,-.348 .4172,-.4348 .6814,-.421 1.0925,-1.1647 1.0925,-1.9606 0,-.0369-7.68e-4,-.0745-.0023,-.1114-.1852,-3.7852-2.8841,-6.8928-6.279,-7.2286-.0023,0-.6062,-.0338-.6062,-.0338-.0054,0-.0069,-7.68e-4-.0069,0zm.7752,14.597c0,.3411 0,.4272 0,.7683-.5762,0-.9603,0-1.5365,0 0,-.3411 0,-.4272 0,-.7683 .5762,0 .9603,0 1.5365,0z" fill="url(#linearGradient7532)" filter="url(#filter8329)" opacity=".725" stroke="#000" stroke-opacity=".547" stroke-width="4.676" transform="matrix(1.14217,0,0,1.05218,-9.07916,-2.2295)"/>
<path d="m57.7303,35.8105c0,0 0,0 0,0-.0269,.5593 .252,1.0879 .7268,1.3821 .935,.5777 1.5626,2.0297 1.5626,3.6116 0,.8474 .6891,1.5365 1.5365,1.5365l4.6096,0c.8482,0 1.5365,-.6891 1.5365,-1.5365 0,-1.5826 .6284,-3.0339 1.5634,-3.6116 .4756,-.2942 .7529,-.8228 .726,-1.3813-.1782,-3.6631-2.871,-6.531-6.13,-6.531-3.259,0-5.9517,2.8679-6.1315,6.5302z" fill="url(#linearGradient7534)"/>
<path d="m58.5116,35.0799c-.0138,.2789 .126,.5439 .3634,.6907 1.1708,.7245 1.9268,2.3977 1.9268,4.2654 0,.4248 .3442,.7683 .7683,.7683l4.6096,0c.4248,0 .7683,-.3434 .7683,-.7683 0,-1.8676 .756,-3.5409 1.9276,-4.2654 .2382,-.1467 .3764,-.4118 .3634,-.6907-.1598,-3.2528-2.5153,-5.7996-5.364,-5.7996-2.8487,0-5.2042,2.5468-5.3632,5.7996z" fill="url(#linearGradient7536)"/>
<path d="m68.0541,36.1946c.1344,-.1122 .272,-.2197 .4164,-.3088-.0207,-.4248-.0883,-.8343-.189,-1.2277l-8.8143,0c-.0999,.3933-.1683,.8028-.189,1.2277 .1444,.0891 .282,.1967 .4164,.3088l8.3594,0z" fill="url(#linearGradient7538)" filter="url(#filter8354)"/>
<path d="m60.8018,36.1946c-.8474,0-1.5365,.6891-1.5365,1.5365l0,19.4441c0,.8474 .6891,1.5365 1.5365,1.5365l6.1461,0c.8474,0 1.5365,-.6891 1.5365,-1.5365l0,-19.4441c0,-.8474-.6891,-1.5365-1.5365,-1.5365zm1.5365,3.073 3.073,0 0,5.3778-3.073,0zm3.073,10.6578c0,.2128 0,2.4622 0,2.675-.3227,0-2.7504,0-3.073,0 0,-.2128 0,-2.4622 0,-2.675 .3227,0 2.7504,0 3.073,0z" fill="url(#linearGradient7540)"/>
<path d="m66.9478,36.1946-6.1461,0c-.4241,0-.7683,.3434-.7683,.7683l0,19.4441c0,.4248 .3442,.7683 .7683,.7683l6.1461,0c.4248,0 .7683,-.3434 .7683,-.7683l0,-19.4441c0,-.4248-.3434,-.7683-.7683,-.7683zm-.7683,16.5979c0,.3181-.2581,.5762-.5762,.5762l-3.4572,0c-.3181,0-.5762,-.2581-.5762,-.5762l0,-3.0592c0,-.3181 .2581,-.5762 .5762,-.5762l3.4572,0c.3181,0 .5762,.2581 .5762,.5762zm0,-8.1471c0,.4248-.3434,.7683-.7683,.7683l-3.073,0c-.4241,0-.7683,-.3434-.7683,-.7683l0,-6.1461c0,-.4248 .3442,-.7683 .7683,-.7683l3.073,0c.4248,0 .7683,.3434 .7683,.7683z" fill="url(#linearGradient7542)"/>
<path d="m65.4113,39.2677c0,.4248-.3434,.7683-.7683,.7683l-1.5365,0c-.4241,0-.7683,-.3434-.7683,-.7683l0,-7.6826c0,-.4248 .3442,-.7683 .7683,-.7683l1.5365,0c.4248,0 .7683,.3434 .7683,.7683l0,7.6826z" fill="url(#linearGradient7544)"/>
<path d="M63.1065,31.5851H64.6431V39.2677H63.1065z" fill="url(#linearGradient7546)"/>
</g>
</g>
</g>
</svg>
