<svg viewBox="0 0 96 96" xmlns="http://www.w3.org/2000/svg" xmlns:xlink="http://www.w3.org/1999/xlink">
<defs>
<clipPath id="clipPath4355">
<path d="m12,6h72a6,6 0 0,1 6,6v68a6,6 0 0,1 -6,6h-72a6,6 0 0,1 -6-6v-68a6,6 0 0,1 6-6"/>
</clipPath>
<filter id="filter3174">
<feGaussianBlur stdDeviation="1.71"/>
</filter>
<filter height="1.7432" id="filter4002" width="1.6982" x="-.3491" y="-.3716">
<feGaussianBlur stdDeviation="9.6"/>
</filter>
<linearGradient gradientUnits="userSpaceOnUse" id="ButtonShadow" x2="0" y1="92" y2="6.9756">
<stop offset="0"/>
<stop offset="1" stop-opacity=".588"/>
</linearGradient>
<linearGradient gradientUnits="userSpaceOnUse" id="linearGradient3613" x2="0" y1="20.2208" y2="138.6612">
<stop offset="0" stop-color="#ffec83"/>
<stop offset="1" stop-color="#fff2ab" stop-opacity="0"/>
</linearGradient>
<linearGradient gradientUnits="userSpaceOnUse" id="linearGradient3617" x2="0" y1="90" y2="5.9877">
<stop offset="0" stop-color="#204a87"/>
<stop offset="1" stop-color="#729fcf"/>
</linearGradient>
<linearGradient gradientUnits="userSpaceOnUse" id="linearGradient3228" spreadMethod="reflect" x1="90" x2="48">
<stop offset="0" stop-opacity=".588"/>
<stop offset=".118" stop-opacity=".471"/>
<stop offset=".238" stop-opacity=".392"/>
<stop offset="1" stop-opacity=".314"/>
</linearGradient>
<linearGradient gradientUnits="userSpaceOnUse" id="linearGradient3978" spreadMethod="repeat" x1="6" x2="8">
<stop offset="0" stop-color="#784421"/>
<stop offset=".7" stop-color="#784421" stop-opacity="0"/>
<stop offset="1" stop-color="#784421" stop-opacity=".748"/>
</linearGradient>
<linearGradient id="linearGradient4384-8">
<stop offset="0" stop-color="#fff"/>
<stop offset="1" stop-color="#fff" stop-opacity="0"/>
</linearGradient>
<linearGradient gradientUnits="userSpaceOnUse" id="linearGradient3780" x2="0" xlink:href="#ButtonShadow" y1="-91.8667" y2="-6.7585"/>
<linearGradient gradientUnits="userSpaceOnUse" id="linearGradient3721" x2="0" xlink:href="#ButtonShadow" y1="-90.8683" y2="-6.7614"/>
<linearGradient gradientUnits="userSpaceOnUse" id="linearGradient4429-1" spreadMethod="reflect" x1="48" x2="112.1236" xlink:href="#linearGradient4384-8" y1="82" y2="82.4546"/>
<linearGradient gradientUnits="userSpaceOnUse" id="linearGradient4047" x2="0" xlink:href="#linearGradient4384-8" y1="4" y2="132"/>
</defs>
<path d="m12-95.0312c-5.5111,0-10.0312,4.5202-10.0312,10.0312v71c0,5.5111 4.5202,10.0312 10.0312,10.0312h72c5.5111,0 10.0312-4.5202 10.0312-10.0312v-71c0-5.5111-4.5202-10.0312-10.0312-10.0312h-72z" fill="url(#linearGradient3780)" opacity=".08" transform="scale(1,-1)"/>
<path d="m12-94.0312c-4.9716,0-9.0312,4.0596-9.0312,9.0312v71c0,4.9716 4.0596,9.0312 9.0312,9.0312h72c4.9716,0 9.0312-4.0596 9.0312-9.0312v-71c0-4.9716-4.0596-9.0312-9.0312-9.0312h-72z" fill="url(#linearGradient3780)" opacity=".1" transform="scale(1,-1)"/>
<path d="m12-93c-4.4091,0-8,3.5909-8,8v71c0,4.4091 3.5909,8 8,8h72c4.4091,0 8-3.5909 8-8v-71c0-4.4091-3.5909-8-8-8h-72z" fill="url(#linearGradient3780)" opacity=".2" transform="scale(1,-1)"/>
<path d="m12-92h72a7,7 0 0,1 7,7v71a7,7 0 0,1 -7,7h-72a7,7 0 0,1 -7-7v-71a7,7 0 0,1 7-7" fill="url(#linearGradient3780)" opacity=".3" transform="scale(1,-1)"/>
<path d="m12-91h72a6,6 0 0,1 6,6v72a6,6 0 0,1 -6,6h-72a6,6 0 0,1 -6-6v-72a6,6 0 0,1 6-6" fill="url(#linearGradient3721)" opacity=".45" transform="scale(1,-1)"/>
<path d="m12,6h72a6,6 0 0,1 6,6v72a6,6 0 0,1 -6,6h-72a6,6 0 0,1 -6-6v-72a6,6 0 0,1 6-6" fill="url(#linearGradient3617)"/>
<path d="m14.8536,6 14.0246,52.6476c.0191-.5328.0891-1.0016.2533-1.4246 .1957-.4929.402-.9013.7281-1.2347s.7365-.6175 1.1714-.7915 .9001-.2533 1.393-.2533c.3117,0 .6083-.0118.8548.0317s.452.132.6332.1899c.1884.058.3589.1003.4749.1583s.2098.161.2533.1899l-.3166.7915c-.0652-.0435-.1617-.0442-.2849-.095s-.2521-.1076-.4116-.1583c-.1522-.0507-.3814-.0976-.5698-.1266-.1812-.0363-.3181-.0633-.5065-.0633-.3986,0-.7891.0522-1.108.1899s-.5668.3722-.7915.6332-.415.5729-.5382.9497c-.116.3696-.1583.7708-.1583,1.2347 0,.4494.0568.8967.1583,1.2663 .1087.3696.2647.6816.4749.9497 .2102.2609.4798.4249.7915.5698 .3189.145.6877.2216 1.108.2216 .4856,0 .8841-.0252 1.203-.1266s.537-.1735.6965-.2533l.2849.8231c-.0507.0362-.1545.1003-.2849.1583-.1305.0507-.2792.0759-.4749.1266s-.4039.1221-.6648.1583-.582.0317-.8864.0317c-.5291,0-.9898-.0793-1.4246-.2533s-.828-.3947-1.1397-.7281c-.0653-.0698-.1305-.1764-.19-.2533l4.4005,16.4623 46.4426-15.0693-5.0653-26.9728-.3482.8864c-.5354-.3508-1.2349-.6649-2.1211-.8864-.8862-.24-1.8311-.3799-2.7543-.3799h-.2533l3.1658,15.0693 .2533-.095v-7.1548h2.6909v8.9909c-.2216.0738-.5568.161-.9814.2533-.4062.0923-.8707.161-1.4246.2533h-.0633l.7281,3.4507c.0144.0306-.0129.095 0,.1266 .0865.2117.1385.4374.1583.6965l.8231,3.9573-.7915-3.6724c-.0123.4696-.1251.8655-.3799,1.203-.2609.3551-.6568.6492-1.1714.8231 .116.145.2693.3307.4432.5698 .1812.2319.3181.5015.5065.7915 .1884.2827.4203.5748.6015.8864 .1884.3117.3444.5649.4749.8548h-1.1714c-.1449-.2754-.3009-.5088-.4749-.7915s-.3009-.5694-.4749-.8231c-.1739-.2609-.3959-.5035-.5698-.7281s-.3055-.4031-.4432-.5698c-.0942.0073-.1835,0-.2849,0h-.2849-.9497v2.9126h-1.0764v-7.3764c.2972-.0725.619-.1049.9814-.1266 .3696-.029.7403-.0633 1.0447-.0633 1.0582,0 1.8235.2029 2.3744.6015 .2359.1685.4654.3641.6015.6015l-.7915-3.2608c-.4935.0821-1.0273.1713-1.6146.2216-.6462.0738-1.2665.0633-1.9312.0633-1.3478,0-2.5963-.1901-3.704-.6332s-2.0237-1.0819-2.8176-1.9312-1.4564-1.9288-1.8995-3.1658c-.4246-1.237-.6015-2.636-.6015-4.2422s.2165-3.0369.6965-4.2739c.4985-1.2555 1.1953-2.3165 2.0261-3.1658s1.7731-1.4881 2.8809-1.9312c.8369-.3293 1.7416-.5156 2.6593-.6015l-6.11-27.3211h-21.3377l2.2477,11.8718-2.4693-11.8718h-17.1271l5.8884,28.4291c1.1138-.7877 2.5897-1.1714 4.4322-1.1714 1.1631,0 2.2242.1531 3.1658.4116 .9601.24 1.6463.4961 2.0894.7915l-.8548,2.1844c-.3877-.24-.9341-.4749-1.7095-.6965-.757-.24-1.6755-.3799-2.6909-.3799-.517,0-.9815.0792-1.4246.19s-.839.285-1.1714.5065-.5884.504-.7915.8548c-.1549.2788-.2564.6114-.2849.9814l.2849,1.5196c.2031.3508.5172.6728.8864.9497 .3693.2585.7863.4749 1.2663.6965 .4985.2215 1.0554.4433 1.6462.6648 .8308.3323 1.5963.6807 2.2794,1.0131 .7016.3323 1.2744.7098 1.7729,1.1714 .517.4616.9261,1 1.203,1.6462 .2769.6277.3799,1.4064.3799,2.3111 0,1.6801-.5992,2.9893-1.8362,3.894-1.1375.8445-2.6936,1.244-4.7171,1.298l.2216,1.1397-.2533-1.1397c-.1358.0034-.2718.0317-.4116.0317-.757,0-1.4749-.0792-2.1211-.1899-.6277-.0923-1.2111-.1557-1.7095-.2849-.4985-.1477-.9287-.2955-1.298-.4432-.3508-.1662-.62-.3008-.8231-.4116l.8231-2.2161c.4246.24 1.0634.4961 1.9312.7915 .8376.2852 1.8406.4336 3.0392.4432l-1.6779-7.503c-.1714-.0738-.3396-.1114-.5065-.1899-.6277-.3139-1.2163-.7019-1.6779-1.108-.4616-.4246-.8311-.9156-1.108-1.4879-.2585-.5723-.3482-1.3088-.3482-2.1211 0-1.6395.5246-2.9261 1.6146-3.8623l-6.5849-28.714h-8.3894zm48.817,0 5.7618,27.2894c.2107-.0129.4181-.0317.6332-.0317 .8677,0 1.6464.0475 2.3111.1583 .6831.1108 1.2295.2322 1.7095.3799 .3669.1129.6568.2364.9181.3482l-5.2553-28.1442h-6.0784zm-21.8442,27.701h2.9442c.997,2.9171 2.0158,5.6939 2.9759,8.3894s1.9288,5.2348 2.9442,7.598c1.0154-2.3447 2.0158-4.8391 2.9759-7.5347 .9601-2.714 1.9024-5.5357 2.8809-8.4527h2.8809c-.7016,2.0309-1.3799,3.8997-2.0261,5.6352-.6277,1.717-1.2269,3.3562-1.8362,4.907s-1.2269,3.0422-1.8362,4.4638c-.5908,1.4032-1.1768,2.7942-1.8045,4.1789h-2.5327c-.6277-1.3847-1.2586-2.7757-1.8678-4.1789-.5908-1.4216-1.2084-2.913-1.8362-4.4638-.6093-1.5509-1.2216-3.19-1.8678-4.907-.6462-1.7355-1.3113-3.6043-1.9945-5.6352zm27.6376,1.9312c-.7001.0649-1.3219.2118-1.9312.4749-.7939.3508-1.4854.8866-2.0578,1.5513-.5539.6647-.9841,1.4776-1.298,2.4377-.3139.9416-.5065,2.0159-.5065,3.1975 0,1.1447.1847,2.1926.4432,3.1342 .2769.9416.6359,1.7546 1.1714,2.4377 .5539.6647 1.2322,1.1503 2.0261,1.5196 .8123.3693 1.7599.5698 2.8492.5698 .7754,0 1.459-.0528 1.9945-.1266 .3776-.0629.5593-.1034.7915-.1583l-3.3558-15.0377h-.1266zm-37.3567,7.9462 1.5513,7.408h.0317c2.8063,0 4.1789-.9925 4.1789-2.9126 0-.5908-.1214-1.0501-.3799-1.4563-.24-.4246-.5568-.8126-.9814-1.108-.4246-.3139-.9024-.5382-1.4563-.7598-.5354-.2216-1.1319-.4749-1.7412-.6965-.4156-.1422-.8154-.3157-1.203-.4749zm3.7357,11.5553h1.0764v6.6166h3.4824v.8548h-4.5588v-7.4713zm5.6668,0h4.6221v.8864h-3.5774v2.2477h3.1658v.8548h-3.1658v2.6276h3.8306v.8548h-4.8754v-7.4713zm8.5794,0h.9497c.2609.5436.5523,1.0881.7915,1.6462 .2392.5508.4573,1.1324.6965,1.7412 .2464.6088.4745,1.2499.7281,1.9312 .2537.674.5332,1.3555.8231,2.1528h-1.1714c-.1232-.3262-.2079-.5748-.3166-.8864-.1087-.3189-.2323-.6553-.3482-.9814h-3.4191l-.6332,1.8678h-1.1397c.2899-.7973.5378-1.4787.7915-2.1528 .2537-.6813.5206-1.3223.7598-1.9312 .2464-.6088.489-1.1904.7281-1.7412 .2392-.5581.4989-1.1026.7598-1.6462zm5.0337,0h.8548c.3406.3624.6606.7491 1.0447,1.2347 .3914.4784.7628,1.005 1.1397,1.5196s.7746.9951 1.108,1.4879c.3406.4929.6229.9455.8548,1.3296v-5.5718h1.0131v7.4713h-.8864c-.1595-.2682-.328-.5214-.5382-.8548-.2029-.3334-.4256-.6579-.6648-1.0131s-.4672-.7701-.7281-1.1397c-.2537-.3696-.5378-.7041-.7915-1.0447-.2537-.3479-.489-.6453-.7281-.9497s-.4619-.5912-.6648-.8231v5.8251h-1.0131v-7.4713zm7.8829,0h4.6221v.8864h-3.5141v2.2477h3.1342v.8548h-3.1342v2.6276h3.7673v.8548h-4.8754v-7.4713zm7.2814.8548v2.8492h.7281c.3624,0 .6915-.0271.9814-.0633s.5324-.0885.7281-.19 .3662-.262.4749-.4432c.1087-.1884.1583-.4237.1583-.7281 0-.2827-.0496-.508-.1583-.6965s-.2231-.3345-.4116-.4432c-.1812-.1087-.4111-.1781-.6648-.2216s-.5404-.0633-.8231-.0633c-.4494,0-.7739-.0217-1.0131,0zm-19.7547.3166c-.2537.5436-.4962,1.1469-.7281,1.7412-.2247.5871-.4401,1.2056-.6648,1.8362h2.7859c-.2319-.6306-.4329-1.2491-.6648-1.8362-.2247-.5943-.4817-1.1976-.7281-1.7412zm30.012,7.1864-46.411,15.101 .5698,2.7226 12.3151-2.4377 11.8718-3.9889-10.2256,4.9703c0,0 8.026-2.0606 9.1809,3.1658l1.6462,6.9648h4.2422l-1.8678-8.2311c-1.177-5.3262 6.6482-8.3578 6.6482-8.3578l-.2849-1.4246 1.3296-.4432 11.6186-5.3502-.6332-2.6909z" fill="#fff" fill-rule="evenodd"/>
<path d="m12-90h72a6,6 0 0,1 6,6v72a6,6 0 0,1 -6,6h-72a6,6 0 0,1 -6-6v-72a6,6 0 0,1 6-6" fill="url(#linearGradient3978)" opacity=".1" transform="matrix(0,1,-1,0,0,0)"/>
<path clip-path="url(#clipPath4355)" d="m27,15h42a12,12 0 0,1 12,12v38a12,12 0 0,1 -12,12h-42a12,12 0 0,1 -12-12v-38a12,12 0 0,1 12-12" fill="url(#linearGradient3613)" filter="url(#filter4002)" opacity=".2" stroke="#fff" stroke-linecap="round" stroke-width=".5"/>
<path d="m12,86c-3.324,0-6-2.676-6-6v-68c0-3.324 2.676-6 6-6h72c3.324,0 6,2.676 6,6v68c0,3.324-2.676,6-6,6zm0-.9688h72c2.8049,0 5.0312-2.2264 5.0312-5.0312v-68c0-2.8049-2.2264-5.0312-5.0312-5.0312h-72c-2.8049,0-5.0312,2.2264-5.0312,5.0312v68c0,2.8049 2.2264,5.0312 5.0312,5.0312z" fill="url(#linearGradient4047)" opacity=".3"/>
<path d="m6,78v2c0,3.324 2.676,6 6,6h72c3.324,0 6-2.676 6-6v-2c0,3.324-2.676,6-6,6h-72c-3.324,0-6-2.676-6-6z" fill="url(#linearGradient4429-1)" opacity=".1"/>
<path d="m6,80v4c0,3.324 2.676,6 6,6h72c3.324,0 6-2.676 6-6v-4c0,3.324-2.676,6-6,6h-72c-3.324,0-6-2.676-6-6z" fill="url(#linearGradient3228)"/>
<path d="m6,82v2c0,3.324 2.676,6 6,6h72c3.324,0 6-2.676 6-6v-2c0,3.324-2.676,6-6,6h-72c-3.324,0-6-2.676-6-6z" opacity=".1"/>
<path d="m6,83v1c0,3.324 2.676,6 6,6h72c3.324,0 6-2.676 6-6v-1c0,3.324-2.676,6-6,6h-72c-3.324,0-6-2.676-6-6z" opacity=".15"/>
</svg>
