<svg version="1.1" viewBox="0 0 128 128" xmlns="http://www.w3.org/2000/svg" xmlns:svg="http://www.w3.org/2000/svg" xmlns:xlink="http://www.w3.org/1999/xlink">
<defs>
<linearGradient gradientTransform="matrix(0,-1.00186,1.00127,0,-.03823,128.08797)" gradientUnits="userSpaceOnUse" id="linearGradient43721" x1="12.0967" x2="115.9033">
<stop offset="0" stop-color="#6193cf"/>
<stop offset="1" stop-color="#bfd9ff"/>
</linearGradient>
<linearGradient gradientUnits="userSpaceOnUse" id="linearGradient43854" x2="0" y1="68.9344" y2="120.3458">
<stop offset="0" stop-color="#bfd9ff"/>
<stop offset="1" stop-color="#a4c0e4"/>
</linearGradient>
<linearGradient gradientUnits="userSpaceOnUse" id="linearGradient43856" x1="22.3867" x2="110.6367">
<stop offset="0" stop-color="#6193cf"/>
<stop offset="1" stop-color="#6193cf" stop-opacity=".8"/>
</linearGradient>
<radialGradient cx="64.0312" cy="63.9688" gradientUnits="userSpaceOnUse" id="radialGradient43724" r="60">
<stop offset="0" stop-color="#00438a"/>
<stop offset="1" stop-color="#6193cf"/>
</radialGradient>
</defs>
<title>SVG Logo</title>
<desc>Designed for the SVG Logo Contest in 2006 by Harvey Rayner, and adopted by W3C in 2009. It is available under the Creative Commons license for those who have an SVG product or who are using SVG on their site.</desc>
<path d="m106.562,72.375c-2.2412,2.4859 -4.4178,4.5892 -6.5,6.3438 .9879,1.1298 1.5938,2.6059 1.5938,4.2188h9.0938c0,-4.0947 -1.598,-7.7903 -4.1875,-10.5625zm-17.8438,13.3438c-3.0072,1.2341 -5.9881,2.0794 -9.0625,2.75v16.4688c0,8.5907 6.943,15.5625 15.5312,15.5625 8.5874,0 15.5625,-6.9718 15.5625,-15.5625v-15.5312h-15.5625v9.0938h6.4688v6.4375c-.0042,3.5544 -2.9163,6.4375 -6.4688,6.4375 -3.5576,0 -6.4375,-2.8789 -6.4375,-6.4375v-19.2188c-.0087,.0036 -.0226,-.0036 -.0312,0zm-13.625,3.625c-3.0257,.5759 -6.1571,1.169 -9.5312,2l-1.4688,7.1562 -1.3437,-6.4062c-2.6662,.7511 -5.4751,1.706 -8.4688,2.9375l5.25,25.4688h9.125l6.4375,-31.1562zm-28,9.0625c-2.5196,1.3328 -5.1475,2.8638 -7.9375,4.6875 .1742,.5824 .2812,1.2007 .2812,1.8438 0,3.5578 -2.8799,6.4375 -6.4375,6.4375 -1.3663,0 -2.6457,-.4311 -3.6875,-1.1562 -2.2824,1.8074 -4.6291,3.7358 -7.0938,5.9062 2.7997,2.6972 6.5939,4.375 10.7813,4.375 8.5874,0 15.5625,-6.9726 15.5625,-15.5625 0,-2.3322 -.5464,-4.5443 -1.4688,-6.5312z" fill="#6193cf" opacity=".749"/>
<path d="m32.9999,67.4062c-8.5831,0 -15.5624,6.9414 -15.5624,15.5312 0,4.2932 1.7478,8.1853 4.5625,11 2.8138,2.8155 6.836,3.9237 10.9999,4.5625 1.7173,.3198 3.3964,.7398 4.5625,1.9062 1.1618,1.1664 1.875,2.7541 1.875,4.5312 0,3.5578 -2.8799,6.4375 -6.4375,6.4375 -3.5567,0 -6.4375,-2.8797 -6.4375,-6.4375h-9.125c0,8.5899 6.9793,15.5625 15.5624,15.5625 8.5874,0 15.5624,-6.9726 15.5624,-15.5625 0,-4.2933 -1.7478,-8.1845 -4.5625,-11 -2.8138,-2.8147 -6.7037,-4.0842 -10.9999,-4.5312 -2.4153,-.3834 -3.3964,-.7356 -4.5625,-1.9062 -1.161,-1.1622 -1.875,-2.7853 -1.875,-4.5625 0,-3.5578 2.8807,-6.4375 6.4375,-6.4375 3.5576,0 6.4375,2.8797 6.4375,6.4375h9.125c0,-8.5899 -6.975,-15.5312 -15.5624,-15.5312zm15.5624,0 10.9687,53.0938h9.125l10.9999,-53.0938h-9.125l-6.4375,31.0938 -6.4375,-31.0938h-9.0937zm46.6247,0c-8.5882,0 -15.5312,6.9414 -15.5312,15.5312v22c0,8.5907 6.9429,15.5625 15.5312,15.5625 8.5874,0 15.5624,-6.9718 15.5624,-15.5625v-15.5312h-15.5624v9.0938h6.4687v6.4375c-.0042,3.5544 -2.9162,6.4375 -6.4687,6.4375 -3.5576,0 -6.4375,-2.8789 -6.4375,-6.4375v-22c0,-3.5544 2.8799,-6.4375 6.4375,-6.4375 3.5525,0 6.4687,2.8831 6.4687,6.4375h9.0937c0,-8.5899 -6.9793,-15.5312 -15.5624,-15.5312z" fill="#bfd9ff"/>
<path d="m32.9995,67.4062c-8.5831,0 -15.5624,6.9414 -15.5624,15.5312 0,4.2933 1.7478,8.1853 4.5625,11 2.8138,2.8155 6.836,3.9237 10.9999,4.5625 1.7173,.3198 3.3964,.7398 4.5625,1.9062 1.1618,1.1664 1.875,2.7541 1.875,4.5312 0,3.5578 -2.8799,6.4375 -6.4375,6.4375 -3.5567,0 -6.4375,-2.8797 -6.4375,-6.4375h-9.1249c0,8.5899 6.9793,15.5625 15.5624,15.5625 8.5874,0 15.5624,-6.9726 15.5624,-15.5625 0,-4.2933 -1.7478,-8.1845 -4.5625,-11 -2.8138,-2.8147 -6.7037,-4.0842 -10.9999,-4.5312 -2.4153,-.3834 -3.3964,-.7356 -4.5625,-1.9062 -1.161,-1.1622 -1.875,-2.7853 -1.875,-4.5625 0,-3.5578 2.8807,-6.4375 6.4375,-6.4375 3.5576,0 6.4375,2.8797 6.4375,6.4375h9.125c0,-8.5899 -6.975,-15.5312 -15.5624,-15.5312zm15.5624,0 10.9687,53.0938h9.125l10.9999,-53.0938h-9.1249l-6.4375,31.0938 -6.4375,-31.0938h-9.0937zm46.6247,0c-8.5882,0 -15.5312,6.9414 -15.5312,15.5312v22c0,8.5907 6.9429,15.5625 15.5312,15.5625 8.5874,0 15.5624,-6.9718 15.5624,-15.5625v-15.5312h-15.5624v9.0938h6.4687v6.4375c-.0042,3.5544 -2.9162,6.4375 -6.4687,6.4375 -3.5576,0 -6.4375,-2.8789 -6.4375,-6.4375v-22c0,-3.5544 2.8799,-6.4375 6.4375,-6.4375 3.5525,0 6.4687,2.8831 6.4687,6.4375h9.0937c0,-8.5899 -6.9793,-15.5312 -15.5624,-15.5312z" fill="#bfd9ff"/>
<path d="m110.0625,78.3596c-3.0383,.4658 -6.0975,1.0033 -9.125,1.5938 .4674,.8888 .7188,1.8975 .7188,2.9688h9.0938c0,-1.5999 -.238,-3.1112 -.6875,-4.5625zm-21.3125,4.375c-3.037,.7848 -6.0825,1.624 -9.0938,2.5625v19.625c0,8.5907 6.943,15.5625 15.5312,15.5625 8.5874,0 15.5625,-6.9718 15.5625,-15.5625v-15.5312h-15.5625v9.0938h6.4688v6.4375c-.0042,3.5544 -2.9163,6.4375 -6.4688,6.4375 -3.5576,0 -6.4375,-2.8789 -6.4375,-6.4375v-22c0,-.0633 -.0018,-.1246 0,-.1875zm-13.0938,3.875c-3.3115,1.1162 -6.6063,2.3321 -9.875,3.6562l-1.6875,8.2188 -1.4375,-6.9375c-2.7944,1.1971 -5.5575,2.5105 -8.3125,3.875l5.1875,25.0625h9.125l7,-33.875zm-28.25,12.4375c-2.7155,1.5118 -5.3962,3.1161 -8.0625,4.8125 .0584,.3485 .0938,.6959 .0938,1.0625 0,3.5578 -2.8799,6.4375 -6.4375,6.4375 -1.1999,0 -2.3199,-.3041 -3.2812,-.875 -2.4758,1.8424 -4.9231,3.7836 -7.3438,5.8125 2.7837,2.6067 6.5176,4.1875 10.625,4.1875 8.5874,0 15.5625,-6.9726 15.5625,-15.5625 0,-2.0877 -.408,-4.0549 -1.1562,-5.875z" fill="#6193cf" fill-rule="evenodd"/>
<path d="m4,63.9827h120v42.415c0,9.9675 -7.6325,17.6022 -17.5972,17.6022h-84.8057c-9.9647,0 -17.5972,-7.6347 -17.5972,-17.6022z" id="base"/>
<path d="m63.2809,3.9851c-7.0684,.3072 -13.0672,4.5989 -15.6331,11.1889 -.8619,2.2135 -1.0986,4.4754 -1.0631,6.7196 -1.6399,-1.6862 -3.5097,-3.2004 -5.8155,-4.1568 -6.6708,-2.7666 -14.06,-1.2912 -19.1662,3.813 -5.1062,5.1042 -6.5474,12.4898 -3.7832,19.1586 .9658,2.33 2.4787,4.1946 4.1897,5.8445 -2.3867,-.045 -4.7887,.2162 -7.1287,1.1876 -6.6626,2.766 -10.8494,9.0105 -10.8494,16.2208l8.0667,.0313h-8.0667c0,7.2102 4.1868,13.4548 10.8494,16.2208 2.34,.9714 4.742,1.2326 7.1287,1.1876 -1.711,1.6499 -3.2239,3.5145 -4.1897,5.8445 -2.7642,6.6689 -1.323,14.0544 3.7832,19.1586 5.1062,5.1042 12.4955,6.5796 19.1662,3.813 2.3058,-.9563 4.1757,-2.4705 5.8155,-4.1568 -.0365,2.3613 .2606,4.7478 1.2194,7.0634 2.7612,6.6689 9.0065,10.8451 16.2272,10.8451 7.2207,0 13.466,-4.1762 16.2272,-10.8451 .9587,-2.3156 1.2559,-4.7021 1.2194,-7.0634 1.6399,1.6862 3.5097,3.2004 5.8155,4.1568 6.6708,2.7666 14.06,1.2913 19.1662,-3.813 5.1063,-5.1042 6.5474,-12.4898 3.7832,-19.1586 -.9657,-2.33 -2.4787,-4.1946 -4.1897,-5.8445 2.3867,.045 4.7887,-.2162 7.1287,-1.1876 6.6626,-2.766 10.8494,-9.0105 10.8494,-16.2208 0,-7.2102 -4.1868,-13.486 -10.8494,-16.252 -2.34,-.9714 -4.742,-1.2326 -7.1287,-1.1876 1.6884,-1.6281 3.1943,-3.4594 4.1584,-5.7507l.0313,-.0938c2.7642,-6.6689 1.323,-14.0544 -3.7832,-19.1586 -5.1062,-5.1042 -12.4955,-6.5796 -19.1662,-3.813 -2.3203,.9623 -4.2013,2.4873 -5.8468,4.188 .0428,-2.4914 -.2777,-5.011 -1.3444,-7.4384 -2.9584,-6.7316 -9.4715,-10.8102 -16.8213,-10.5013z" fill="url(#radialGradient43724)" id="svgbar"/>
<path d="m12.0396,64.3758a9.5203,9.5232 0 0,0 16.2394,6.3243h19.4936l-13.7675,13.7756a9.5203,9.5232 0 1,0 9.5121,9.5177l13.7675,-13.7443v19.4737a9.5203,9.5232 0 1,0 13.4859,0v-19.505l13.7675,13.7756a9.5203,9.5232 0 1,0 9.5121,-9.5177l-13.7675,-13.7756h19.4936a9.5203,9.5232 0 1,0 0,-13.4625h-19.4936l13.7675,-13.7756a9.5203,9.5232 0 1,0 -9.5121,-9.5177l-13.7675,13.7443v-19.4737a9.5203,9.5232 0 1,0 -13.4859,0v19.505l-13.7675,-13.7756a9.5203,9.5232 0 1,0 -9.5121,9.5177l13.7675,13.7756h-19.4936a9.5203,9.5232 0 0,0 -16.2394,7.1383z" fill="url(#linearGradient43721)"/>
<path d="m4.0312,63.9688h120v42.4028c0,9.9647 -7.6325,17.5972 -17.5972,17.5972h-84.8057c-9.9647,0 -17.5972,-7.6325 -17.5972,-17.5972z" fill="#00316e" opacity=".95"/>
<g transform="matrix(1.07167,0,0,.86639,-4.58934,18.55497)">
<path d="m32.9377,67.4219c-8.5831,0 -15.5624,6.9414 -15.5624,15.5312 0,4.2933 1.7478,8.1853 4.5625,11 2.8138,2.8155 6.836,3.9237 10.9999,4.5625 1.7173,.3198 3.3964,.7398 4.5625,1.9062 1.1618,1.1664 1.875,2.7541 1.875,4.5312 0,3.5578 -2.8799,6.4375 -6.4375,6.4375 -3.5567,0 -6.4375,-2.8797 -6.4375,-6.4375h-9.1249c0,8.5899 6.9793,15.5625 15.5624,15.5625 8.5874,0 15.5624,-6.9726 15.5624,-15.5625 0,-4.2933 -1.7478,-8.1845 -4.5625,-11 -2.8138,-2.8147 -6.7037,-4.0842 -10.9999,-4.5312 -2.4153,-.3834 -3.3964,-.7356 -4.5625,-1.9062 -1.161,-1.1622 -1.875,-2.7853 -1.875,-4.5625 0,-3.5578 2.8807,-6.4375 6.4375,-6.4375 3.5576,0 6.4375,2.8797 6.4375,6.4375h9.1249c0,-8.5899 -6.975,-15.5312 -15.5624,-15.5312zm15.5624,0 10.9687,53.0938h9.1249l10.9999,-53.0938h-9.125l-6.4375,31.0938 -6.4375,-31.0938h-9.0937zm46.6248,0c-8.5882,0 -15.5312,6.9414 -15.5312,15.5312v22c0,8.5907 6.9429,15.5625 15.5312,15.5625 8.5874,0 15.5624,-6.9718 15.5624,-15.5625v-15.5312h-15.5624v9.0938h6.4687v6.4375c-.0042,3.5544 -2.9162,6.4375 -6.4687,6.4375 -3.5576,0 -6.4375,-2.8789 -6.4375,-6.4375v-22c0,-3.5544 2.8799,-6.4375 6.4375,-6.4375 3.5525,0 6.4687,2.8831 6.4687,6.4375h9.0937c0,-8.5899 -6.9793,-15.5312 -15.5624,-15.5312z" fill="url(#linearGradient43854)"/>
<path d="m109.6367,78.1004c-.5237,.0897 -1.1101,.1863 -1.6562,.2812 -1.5732,.7016 -4.2698,2.0998 -5.25,2.25 -.8807,.135 .4502,-.9131 1.0625,-1.5 -.9786,.1804 -1.9529,.3702 -2.9375,.5625 .1457,.4186 .2721,.7912 .375,1.1562 .0076,.0218 .0239,.0406 .0312,.0625 .0136,.0405 .0184,.0842 .0312,.125 .046,.1647 .0848,.3348 .125,.5 .0095,.0416 .0226,.0831 .0312,.125 .0164,.0734 .0487,.1445 .0625,.2188 .0125,.0734 .0213,.1445 .0312,.2188 .0014,.0103 -.0013,.0209 0,.0312 -.0007,.0105 -.0013,.0209 0,.0312 .0319,.2585 .0625,.5142 .0625,.7812h9.0312c-.0061,-.9417 -.0805,-1.7702 -.1875,-2.5312 -.0017,-.0102 .0017,-.0211 0,-.0312 -.0274,-.192 -.0602,-.378 -.0938,-.5625 -.0107,-.0521 -.02,-.1044 -.0312,-.1562 -.0182,-.0844 -.0424,-.1661 -.0625,-.25 -.0178,-.0741 -.0436,-.145 -.0625,-.2188 -.0944,-.3688 -.1948,-.7362 -.3125,-1.0938h-.25zm-21,4.375c-.0003,.0105 .0001,.0209 0,.0312 .032,-.0082 .0618,-.0231 .0938,-.0312h-.0938zm0,.0312c-.8378,.2144 -1.6667,.4327 -2.5,.6562 -1.6853,.9599 -4.6076,3.0293 -5.4062,3.25 -.8486,.2345 .4036,-1.3203 .4688,-1.8438 -.5176,.1553 -1.0469,.2766 -1.5625,.4375v19.5625c.0116,2.5909 .6768,5.2531 1.8125,7.7188 .0152,.0285 .0159,.0654 .0312,.0938 2.6276,4.8511 7.7518,8.125 13.6562,8.125 6.2683,0 11.6293,-3.7151 14.0938,-9.0625 .8859,-2.2226 1.4062,-4.5797 1.4062,-6.875v-15.1562h-15.5v9.0938h6.4688v5.8438l.0312,.2188c-.0021,.1268 -.022,.25 -.0312,.375 -.007,.0934 .0109,.189 0,.2812 -.0005,.0104 .0005,.0208 0,.0312 -.0005,.0109 -.0307,.0203 -.0312,.0312 -.0038,.0093 .0006,.0217 0,.0312 -.0118,.1981 -.033,.4009 -.0625,.5938 -.0016,.0102 .0016,.0211 0,.0312 -.016,.1016 -.0418,.2126 -.0625,.3125 -.0202,.0958 -.0381,.1871 -.0625,.2812 -.029,.114 -.0587,.2323 -.0938,.3438 -.0265,.0831 -.0641,.1684 -.0938,.25 -.0401,.1102 -.0791,.2051 -.125,.3125 -.0816,.1919 -.1821,.3806 -.2812,.5625 -.0392,.0719 -.0832,.1485 -.125,.2188 -.0632,.1052 -.1185,.2113 -.1875,.3125 -.1544,.2285 -.3184,.4498 -.5,.6562 -.0928,.1049 -.1819,.2138 -.2812,.3125 -.0416,.0416 -.0822,.0846 -.125,.125 -.1077,.1014 -.2293,.1873 -.3438,.2812 -.0399,.0329 -.0843,.0618 -.125,.0938 -.1223,.0956 -.2459,.1945 -.375,.2812 -.1721,.1157 -.3481,.2134 -.5312,.3125 -.0125,.0069 -.0187,.0244 -.0312,.0312 -.1918,.1022 -.3912,.1984 -.5938,.2812 -.1729,.0707 -.3514,.1317 -.5312,.1875 -.2119,.0658 -.4358,.1123 -.6562,.1562 -.4051,.08 -.8218,.125 -1.25,.125 -.2236,0 -.4385,-.0091 -.6562,-.0312 -.0621,-.0063 -.126,-.0232 -.1875,-.0312 -.1561,-.0205 -.3163,-.031 -.4688,-.0625 -.148,-.0302 -.2934,-.0848 -.4375,-.125 -.1367,-.0381 -.2734,-.0782 -.4062,-.125 -.0493,-.0174 -.1075,-.0127 -.1562,-.0312 -.0134,-.0051 -.0197,-.0223 -.0312,-.0312 -.0215,-.0083 -.0412,-.0227 -.0625,-.0312 -.1388,-.0554 -.2724,-.1229 -.4062,-.1875 -.0938,-.0457 -.1901,-.075 -.2812,-.125 -.0619,-.0336 -.1268,-.0582 -.1875,-.0938 -.0123,-.0073 -.0218,-.0193 -.0312,-.0312 -.0124,-.0074 -.0189,-.0238 -.0312,-.0312 -.2697,-.163 -.5081,-.3317 -.75,-.5312 -.0452,-.0373 -.0809,-.0865 -.125,-.125 -.2664,-.2322 -.525,-.4773 -.75,-.75 -.0149,-.0181 -.0165,-.0442 -.0312,-.0625 -.1125,-.1393 -.2363,-.2644 -.3438,-.4062 -.0048,-.0071 .0048,-.0241 0,-.0312 -.1119,-.1488 -.2214,-.3036 -.3125,-.4688 -.0065,-.0117 -.0248,-.0195 -.0312,-.0312 -.0878,-.1617 -.1448,-.3302 -.2188,-.5 -.0095,-.0214 -.022,-.041 -.0312,-.0625 -.0635,-.1503 -.1041,-.3128 -.1562,-.4688 -.0611,-.1825 -.1115,-.3731 -.1562,-.5625 -.0336,-.1422 -.0697,-.2918 -.0938,-.4375 -.0072,-.0432 -.0249,-.0815 -.0312,-.125 -.0195,-.0931 -.0159,-.1867 -.0312,-.2812 -.0553,-.3397 -.0938,-.6761 -.0938,-1.0312v-21.9062c0,-.0526 -.0006,-.1044 0,-.1562zm-12.9688,3.8438c-.6764,.2649 -1.3422,.5403 -2,.75 -1.2642,.4031 -5.2022,3.8109 -6.4062,4.2188 -.806,.273 .289,-1.5322 .125,-1.9375 -.509,.2007 -1.0235,.3878 -1.5312,.5938l-1.6875,8.1875 -.0312,-.125 -.0938,.4688 -1.4687,-7.1562c-.8965,.387 -1.797,.7797 -2.6875,1.1875 -.9345,1.0459 -2.0653,2.7253 -2.75,3.0312 -.7083,.3165 .3441,-1.5106 .1562,-1.8125 -.7594,.3638 -2.0616,.92 -3.0625,1.375l5.25,25.375h9.125l7.0312,-34 .0312,-.1562zm-28.4062,12.5625c-.8465,.4798 -1.6896,.9754 -2.5312,1.4688 -1.1638,1.4171 -2.876,3.9372 -3.5625,4.375 -.639,.4075 -.1802,-1.4931 -.375,-2 -.3476,.2172 -1.0723,.637 -1.5625,.9375 .0811,.4077 .1562,.8164 .1562,1.25 0,.2224 -.0093,.4397 -.0312,.6562 -.0023,.0205 .0025,.042 0,.0625 -.0217,.1961 -.0861,.4034 -.125,.5938 -.032,.1435 -.0527,.2977 -.0938,.4375 -.0113,.0408 -.0191,.0845 -.0312,.125 -.0938,.2922 -.2183,.5725 -.3438,.8438 -.0287,.1274 -.0759,.2495 -.1562,.375 -.0252,.0393 -.0365,.0863 -.0625,.125 -.0795,.1389 -.192,.2428 -.2812,.375 -.0317,.0405 -.0611,.0852 -.0938,.125 -.1467,.206 -.2994,.4068 -.4688,.5938 -.1256,.1398 -.2677,.279 -.4062,.4062 -.2089,.1932 -.4231,.3668 -.6562,.5312 -.2304,.1625 -.4674,.3059 -.7188,.4375 -.2214,.1159 -.4518,.2225 -.6875,.3125 -.2041,.0779 -.4116,.1616 -.625,.2188 -.0627,.0168 -.1241,.0476 -.1875,.0625 -.061,.0144 -.1258,.0187 -.1875,.0312 -.154,.0244 -.3064,.0421 -.4688,.0625 -.269,.0342 -.5342,.0625 -.8125,.0625 -.2222,0 -.4383,-.0096 -.6562,-.0312 -.0722,-.0073 -.1473,-.0216 -.2188,-.0312 -.1486,-.0197 -.2919,-.0331 -.4375,-.0625 -.0937,-.0191 -.1891,-.0393 -.2812,-.0625 -.0737,-.0183 -.146,-.0417 -.2188,-.0625 -.0411,-.0119 -.0839,-.0187 -.125,-.0312 -.2016,-.0627 -.4012,-.1374 -.5938,-.2188 -.1947,-.0812 -.3793,-.1821 -.5625,-.2812 -.0619,-.0336 -.1268,-.0582 -.1875,-.0938 -.3717,.279 -.7441,.5502 -1.125,.8438 -.52,.4007 -2.1558,3.6164 -2.6875,4.0312 -.6845,.5341 .2052,-2.0271 -.5,-1.4688 -.7398,.5857 -2.0809,1.7036 -2.9688,2.4375 .2202,.2041 .4245,.4338 .6562,.625 .1231,.0954 .2498,.188 .375,.2812 .0718,.0557 .1469,.103 .2188,.1562 .1998,.1494 .3867,.2976 .5938,.4375 .0193,.013 .0431,.0182 .0625,.0312 .0697,.0466 .1483,.0795 .2188,.125 .0753,.0484 .1427,.109 .2188,.1562 .1855,.118 .371,.2358 .5625,.3438 .0323,.0183 .061,.0446 .0938,.0625 .0407,.0226 .0841,.0403 .125,.0625 .0631,.0306 .1261,.0614 .1875,.0938 .0414,.0214 .0838,.0413 .125,.0625 .2762,.1422 .5582,.2804 .8438,.4062 .0299,.0132 .0629,.0199 .0938,.0312 .0425,.0184 .0823,.0444 .125,.0625 .0723,.0235 .1491,.0342 .2188,.0625 .7966,.3223 1.6137,.5929 2.4688,.7812 .2259,.0499 .458,.0851 .6875,.125 .0415,.0072 .0834,.0244 .125,.0312 .0413,.012 .0826,.0246 .125,.0312 .0728,.0114 .1456,.0208 .2188,.0312 .0403,.0058 .0846,-.0054 .125,0 .2573,.0346 .5199,.0654 .7812,.0938 .0929,.0078 .1878,.0251 .2812,.0312 .3413,.023 .6852,.0312 1.0312,.0312 .3427,0 .6942,-.0095 1.0312,-.0312 .0521,-.0034 .1043,-.0273 .1562,-.0312 .2415,-.0181 .4805,-.0335 .7188,-.0625 .413,-.0507 .8164,-.1051 1.2188,-.1875 .4442,-.091 .8829,-.2157 1.3125,-.3438 .0603,-.0179 .1245,-.0214 .1875,-.0312 .0415,-.0129 .0837,-.018 .125,-.0312 .0543,-.0174 .1022,-.0445 .1562,-.0625 .385,-.1279 .7541,-.281 1.125,-.4375 .444,-.1879 .8906,-.3981 1.3125,-.625 .0623,-.0439 .1243,-.09 .1875,-.125 .0736,-.0409 .1459,-.0829 .2188,-.125 .2953,-.1719 .5917,-.3417 .875,-.5312 .1478,-.099 .2934,-.2086 .4375,-.3125 .0189,-.0136 .0437,-.0175 .0625,-.0312 .012,-.0087 .0193,-.0225 .0312,-.0312 .2805,-.2052 .5467,-.4019 .8125,-.625 .3486,-.2926 .7097,-.6159 1.0312,-.9375 .1049,-.1049 .2106,-.2047 .3125,-.3125 .238,-.2522 .4665,-.5135 .6875,-.7812 .1845,-.2236 .3592,-.4537 .5312,-.6875 .0225,-.0306 .0402,-.063 .0625,-.0938 .1647,-.2272 .3161,-.4513 .4688,-.6875h-.0312c.1099,-.16 .2051,-.335 .3125,-.5 .0191,-.0322 .037,-.066 .0625,-.0938 .0073,-.0125 .0192,-.0219 .0312,-.0312 .0072,-.0125 .024,-.0187 .0312,-.0312 .0615,-.1066 .1285,-.2044 .1875,-.3125 .0047,-.008 -.0047,-.0232 0,-.0312 .2397,-.441 .4592,-.9096 .6562,-1.375 .1716,-.4054 .3314,-.8279 .4688,-1.25 .0208,-.0633 .0425,-.1238 .0625,-.1875 .0748,-.2401 .1555,-.4738 .2188,-.7188 .0636,-.2428 .1355,-.5028 .1875,-.75 .0145,-.0709 .0177,-.1475 .0312,-.2188 .0833,-.4376 .1418,-.8941 .1875,-1.3438 .0532,-.5229 .0938,-1.0569 .0938,-1.5938 0,-.5367 -.0405,-1.071 -.0938,-1.5938 -.0533,-.5228 -.1461,-1.025 -.25,-1.5312 -.1039,-.5063 -.2231,-1.0129 -.375,-1.5 -.1519,-.4871 -.3341,-.9409 -.5312,-1.4062z" fill="url(#linearGradient43856)" opacity=".8"/>
</g>
<path d="m17.0637,64.9762c0,0 -4.9366,.0078 -4.9366,4.9963 0,4.9885 4.9366,4.9963 4.9366,4.9963v-.0312h7.4361c.6818,0 1.2498,-.5632 1.2498,-1.2491 0,-.6859 -.568,-1.2491 -1.2498,-1.2491h-7.4361c0,.0156 -2.4683,.0273 -2.4683,-2.4669 0,-2.4943 2.4683,-2.5137 2.4683,-2.4982v-.0312h7.4361c.6818,0 1.2498,-.5319 1.2498,-1.2178 0,-.6859 -.568,-1.2491 -1.2498,-1.2491h-7.4361zm10.5292,0c-.5635,.1138 -.9686,.6177 -.9686,1.2178v3.7785c0,4.9885 4.9366,4.9963 4.9366,4.9963v-.0312h7.4048 .0312c.6818,0 1.2498,-.5319 1.2498,-1.2178 0,-.6859 -.568,-1.2491 -1.2498,-1.2491h-7.4361c0,.0156 -2.4683,-.0039 -2.4683,-2.4981v-.0312 -3.7472c0,-.6859 -.568,-1.2178 -1.2498,-1.2178 -.0852,0 -.1695,-.0163 -.25,0zm17.9966,0c0,0 -4.9678,.0078 -4.9678,4.9963 0,4.9885 4.9678,4.9963 4.9678,4.9963v-.0312h7.4361c.6818,0 1.2185,-.5632 1.2185,-1.2491 0,-.6859 -.5367,-1.2178 -1.2185,-1.2178h-7.4361c0,.0156 -1.8165,-.0181 -2.3433,-1.5926h7.2799c.6818,0 1.2498,-.4224 1.2498,-.9368 0,-.5144 -.568,-.9368 -1.2498,-.9368h-7.2799c.5268,-1.5433 2.3433,-1.5457 2.3433,-1.5301v-.0312h7.4361c.6818,0 1.2185,-.5319 1.2185,-1.2178 0,-.6859 -.5367,-1.2491 -1.2185,-1.2491h-7.4361zm14.4972,0c0,0 -4.9678,-.039 -4.9678,4.9651v3.7472c0,.6859 .568,1.2491 1.2498,1.2491 .6818,0 1.2185,-.5632 1.2185,-1.2491v-2.8104h8.6858v2.8104c0,.6859 .568,1.2491 1.2498,1.2491 .6818,0 1.2498,-.5632 1.2498,-1.2491v-3.7472c0,-5.0041 -4.9678,-4.9651 -4.9678,-4.9651h-3.718zm14.466,0c-4.9585,0 -4.9678,4.9963 -4.9678,4.9963v3.7472c0,.6859 .568,1.2491 1.2498,1.2491 .6818,0 1.2185,-.5632 1.2185,-1.2491v-3.7472c-.0155,0 .0203,-2.5294 2.4995,-2.5294h3.6868 .0312c2.4793,0 2.4838,2.4981 2.4683,2.4981v3.7472c0,.6859 .568,1.2491 1.2498,1.2491 .6818,0 1.2498,-.5632 1.2498,-1.2491v-3.7472c0,0 -.0093,-4.9651 -4.9678,-4.9651h-.0312 -3.6868zm14.4035,0c0,0 -4.9678,.0078 -4.9678,4.9963 0,4.9885 4.9678,4.9963 4.9678,4.9963v-.0312h7.4361c.6818,0 1.2498,-.5632 1.2498,-1.2491 0,-.6859 -.568,-1.2178 -1.2498,-1.2178h-7.4361c0,.0156 -1.8165,-.0181 -2.3433,-1.5926h7.3111c.6818,0 1.2185,-.4224 1.2185,-.9368 0,-.5144 -.5367,-.9368 -1.2185,-.9368h-7.3111c.5268,-1.5433 2.3433,-1.5457 2.3433,-1.5301v-.0312h7.4361c.6818,0 1.2498,-.5319 1.2498,-1.2178 0,-.6859 -.568,-1.2491 -1.2498,-1.2491h-7.4361zm10.498,0c-.5635,.1168 -.9686,.6489 -.9686,1.2491v7.4632c0,.6859 .5367,1.2491 1.2185,1.2491 .6818,0 1.2498,-.5632 1.2498,-1.2491v-2.4982h5.6552l3.4056,3.4037c.4853,.485 1.2676,.4818 1.7497,0 .4821,-.4818 .4853,-1.2637 0,-1.7487l-1.9996,-1.9985c1.3855,-.492 2.3433,-1.4618 2.3433,-2.7792 0,-1.9486 -2.0826,-3.0603 -4.5929,-3.0914h-7.811c-.0852,0 -.1695,-.0167 -.2499,0zm-39.3675,2.4669h3.718c0,0 1.8007,.0024 2.3121,1.5613h-8.3734c.5268,-1.5589 2.3433,-1.5613 2.3433,-1.5613zm40.8672,0h7.2799c.7903,0 .9531,.2816 .9686,.6245 -.031,.3586 -.1783,.6245 -.9686,.6245h-7.2799v-1.2491z" fill="#bfd9ff" opacity=".95"/>
</svg>
