<svg xmlns="http://www.w3.org/2000/svg" xmlns:xlink="http://www.w3.org/1999/xlink" viewBox="0 0 96 96"><defs><clipPath><path d="m12,6h72a6,6 0 0,1 6,6v68a6,6 0 0,1 -6,6h-72a6,6 0 0,1 -6-6v-68a6,6 0 0,1 6-6"/></clipPath><linearGradient gradientUnits="userSpaceOnUse" id="5" x2="0" xlink:href="#0" y1="-91.87" y2="-6.759"/><linearGradient gradientUnits="userSpaceOnUse" id="6" x2="0" xlink:href="#0" y1="-90.87" y2="-6.761"/><linearGradient gradientUnits="userSpaceOnUse" id="7" spreadMethod="reflect" x1="48" x2="112.12" xlink:href="#4" y1="82" y2="82.45"/><linearGradient gradientUnits="userSpaceOnUse" id="8" x2="0" xlink:href="#4" y1="4" y2="132"/><linearGradient id="4"><stop stop-color="#fff"/><stop offset="1" stop-color="#fff" stop-opacity="0"/></linearGradient><linearGradient gradientUnits="userSpaceOnUse" id="3" spreadMethod="repeat" x1="6" x2="8"><stop stop-color="#784421"/><stop offset=".7" stop-color="#784421" stop-opacity="0"/><stop offset="1" stop-color="#784421" stop-opacity=".748"/></linearGradient><linearGradient gradientUnits="userSpaceOnUse" id="0" x2="0" y1="92" y2="6.976"><stop/><stop offset="1" stop-opacity=".588"/></linearGradient><linearGradient gradientUnits="userSpaceOnUse" id="2" spreadMethod="reflect" x1="90" x2="48"><stop stop-opacity=".588"/><stop offset=".118" stop-opacity=".471"/><stop offset=".238" stop-opacity=".392"/><stop offset="1" stop-opacity=".314"/></linearGradient><linearGradient gradientUnits="userSpaceOnUse" id="1" x2="0" y1="90" y2="5.988"><stop stop-color="#204a87"/><stop offset="1" stop-color="#729fcf"/></linearGradient></defs><g fill="url(#5)"><path d="m12-95.03c-5.511 0-10.03 4.52-10.03 10.03v71c0 5.511 4.52 10.03 10.03 10.03h72c5.511 0 10.03-4.52 10.03-10.03v-71c0-5.511-4.52-10.03-10.03-10.03h-72" opacity=".08" transform="scale(1-1)"/><path d="m12-94.03c-4.972 0-9.03 4.06-9.03 9.03v71c0 4.972 4.06 9.03 9.03 9.03h72c4.972 0 9.03-4.06 9.03-9.03v-71c0-4.972-4.06-9.03-9.03-9.03h-72" opacity=".1" transform="scale(1-1)"/><path d="m12-93c-4.409 0-8 3.591-8 8v71c0 4.409 3.591 8 8 8h72c4.409 0 8-3.591 8-8v-71c0-4.409-3.591-8-8-8h-72" opacity=".2" transform="scale(1-1)"/><path d="m12-92h72a7,7 0 0,1 7,7v71a7,7 0 0,1 -7,7h-72a7,7 0 0,1 -7-7v-71a7,7 0 0,1 7-7" opacity=".3" transform="scale(1-1)"/></g><path d="m12-91h72a6,6 0 0,1 6,6v72a6,6 0 0,1 -6,6h-72a6,6 0 0,1 -6-6v-72a6,6 0 0,1 6-6" fill="url(#6)" opacity=".45" transform="scale(1-1)"/><path d="m12,6h72a6,6 0 0,1 6,6v72a6,6 0 0,1 -6,6h-72a6,6 0 0,1 -6-6v-72a6,6 0 0,1 6-6" fill="url(#1)"/><path d="m14.854 6 14.02 52.648c.019-.533.089-1 .253-1.425.196-.493.402-.901.728-1.235s.736-.617 1.171-.791.9-.253 1.393-.253c.312 0 .608-.012.855.032s.452.132.633.19c.188.058.359.1.475.158s.21.161.253.19l-.317.791c-.065-.044-.162-.044-.285-.095s-.252-.108-.412-.158c-.152-.051-.381-.098-.57-.127-.181-.036-.318-.063-.507-.063-.399 0-.789.052-1.108.19s-.567.372-.791.633-.415.573-.538.95c-.116.37-.158.771-.158 1.235 0 .449.057.897.158 1.266.109.37.265.682.475.95.21.261.48.425.791.57.319.145.688.222 1.108.222.486 0 .884-.025 1.203-.127s.537-.173.697-.253l.285.823c-.051.036-.154.1-.285.158-.13.051-.279.076-.475.127s-.404.122-.665.158-.582.032-.886.032c-.529 0-.99-.079-1.425-.253s-.828-.395-1.14-.728c-.065-.07-.131-.176-.19-.253l4.4 16.462 46.44-15.07-5.065-26.973-.348.886c-.535-.351-1.235-.665-2.121-.886-.886-.24-1.831-.38-2.754-.38h-.253l3.166 15.07.253-.095v-7.155h2.691v8.991c-.222.074-.557.161-.981.253-.406.092-.871.161-1.425.253h-.063l.728 3.451c.014.031-.013.095 0 .127.087.212.138.437.158.697l.823 3.957-.791-3.672c-.012.47-.125.865-.38 1.203-.261.355-.657.649-1.171.823.116.145.269.331.443.57.181.232.318.502.507.791.188.283.42.575.602.886.188.312.344.565.475.855h-1.171c-.145-.275-.301-.509-.475-.791s-.301-.569-.475-.823c-.174-.261-.396-.504-.57-.728s-.305-.403-.443-.57c-.094.007-.183 0-.285 0h-.285-.95v2.913h-1.076v-7.376c.297-.072.619-.105.981-.127.37-.029.74-.063 1.045-.063 1.058 0 1.823.203 2.374.602.236.169.465.364.602.602l-.791-3.261c-.493.082-1.027.171-1.615.222-.646.074-1.266.063-1.931.063-1.348 0-2.596-.19-3.704-.633s-2.024-1.082-2.818-1.931-1.456-1.929-1.9-3.166c-.425-1.237-.602-2.636-.602-4.242s.217-3.037.697-4.274c.498-1.255 1.195-2.316 2.026-3.166s1.773-1.488 2.881-1.931c.837-.329 1.742-.516 2.659-.602l-6.11-27.321h-21.338l2.248 11.872-2.469-11.872h-17.13l5.888 28.429c1.114-.788 2.59-1.171 4.432-1.171 1.163 0 2.224.153 3.166.412.96.24 1.646.496 2.089.791l-.855 2.184c-.388-.24-.934-.475-1.709-.697-.757-.24-1.675-.38-2.691-.38-.517 0-.981.079-1.425.19s-.839.285-1.171.507-.588.504-.791.855c-.155.279-.256.611-.285.981l.285 1.52c.203.351.517.673.886.95.369.258.786.475 1.266.697.498.221 1.055.443 1.646.665.831.332 1.596.681 2.279 1.013.702.332 1.274.71 1.773 1.171.517.462.926 1 1.203 1.646.277.628.38 1.406.38 2.311 0 1.68-.599 2.989-1.836 3.894-1.138.844-2.694 1.244-4.717 1.298l.222 1.14-.253-1.14c-.136.003-.272.032-.412.032-.757 0-1.475-.079-2.121-.19-.628-.092-1.211-.156-1.709-.285-.498-.148-.929-.295-1.298-.443-.351-.166-.62-.301-.823-.412l.823-2.216c.425.24 1.063.496 1.931.791.838.285 1.841.434 3.039.443l-1.678-7.503c-.171-.074-.34-.111-.506-.19-.628-.314-1.216-.702-1.678-1.108-.462-.425-.831-.916-1.108-1.488-.259-.572-.348-1.309-.348-2.121 0-1.639.525-2.926 1.615-3.862l-6.585-28.714h-8.389m48.817 0 5.762 27.29c.211-.013.418-.032.633-.032.868 0 1.646.047 2.311.158.683.111 1.23.232 1.71.38.367.113.657.236.918.348l-5.255-28.14h-6.078m-21.844 27.701h2.944c.997 2.917 2.02 5.694 2.976 8.389s1.929 5.235 2.944 7.598c1.015-2.345 2.02-4.839 2.976-7.535.96-2.714 1.902-5.536 2.881-8.453h2.881c-.702 2.031-1.38 3.9-2.026 5.635-.628 1.717-1.227 3.356-1.836 4.907s-1.227 3.042-1.836 4.464c-.591 1.403-1.177 2.794-1.804 4.179h-2.533c-.628-1.385-1.259-2.776-1.868-4.179-.591-1.422-1.208-2.913-1.836-4.464-.609-1.551-1.222-3.19-1.868-4.907-.646-1.736-1.311-3.604-1.995-5.635m27.638 1.931c-.7.065-1.322.212-1.931.475-.794.351-1.485.887-2.058 1.551-.554.665-.984 1.478-1.298 2.438-.314.942-.507 2.02-.507 3.197 0 1.145.185 2.193.443 3.134.277.942.636 1.755 1.171 2.438.554.665 1.232 1.15 2.026 1.52.812.369 1.76.57 2.849.57.775 0 1.459-.053 1.995-.127.378-.063.559-.103.791-.158l-3.356-15.04h-.127m-37.36 7.946 1.551 7.408h.032c2.806 0 4.179-.992 4.179-2.913 0-.591-.121-1.05-.38-1.456-.24-.425-.557-.813-.981-1.108-.425-.314-.902-.538-1.456-.76-.535-.222-1.132-.475-1.741-.697-.416-.142-.815-.316-1.203-.475m3.736 11.555h1.076v6.617h3.482v.855h-4.559v-7.471m5.667 0h4.622v.886h-3.577v2.248h3.166v.855h-3.166v2.628h3.831v.855h-4.875v-7.471m8.58 0h.95c.261.544.552 1.088.791 1.646.239.551.457 1.132.697 1.741.246.609.474 1.25.728 1.931.254.674.533 1.355.823 2.153h-1.171c-.123-.326-.208-.575-.317-.886-.109-.319-.232-.655-.348-.981h-3.419l-.633 1.868h-1.14c.29-.797.538-1.479.791-2.153.254-.681.521-1.322.76-1.931.246-.609.489-1.19.728-1.741.239-.558.499-1.103.76-1.646m5.03 0h.855c.341.362.661.749 1.045 1.235.391.478.763 1.01 1.14 1.52s.775.995 1.108 1.488c.341.493.623.946.855 1.33v-5.572h1.013v7.471h-.886c-.16-.268-.328-.521-.538-.855-.203-.333-.426-.658-.665-1.013s-.467-.77-.728-1.14c-.254-.37-.538-.704-.791-1.045-.254-.348-.489-.645-.728-.95s-.462-.591-.665-.823v5.825h-1.013v-7.471m7.883 0h4.622v.886h-3.514v2.248h3.134v.855h-3.134v2.628h3.767v.855h-4.875v-7.471m7.281.855v2.849h.728c.362 0 .692-.027.981-.063s.532-.089.728-.19.366-.262.475-.443c.109-.188.158-.424.158-.728 0-.283-.05-.508-.158-.697s-.223-.334-.412-.443c-.181-.109-.411-.178-.665-.222s-.54-.063-.823-.063c-.449 0-.774-.022-1.013 0m-19.755.317c-.254.544-.496 1.147-.728 1.741-.225.587-.44 1.206-.665 1.836h2.786c-.232-.631-.433-1.249-.665-1.836-.225-.594-.482-1.198-.728-1.741m30.01 7.186-46.41 15.1.57 2.723 12.315-2.438 11.872-3.989-10.226 4.97c0 0 8.03-2.061 9.181 3.166l1.646 6.965h4.242l-1.868-8.231c-1.177-5.326 6.648-8.358 6.648-8.358l-.285-1.425 1.33-.443 11.619-5.35-.633-2.691" fill="#fff" fill-rule="evenodd"/><path d="m12-90h72a6,6 0 0,1 6,6v72a6,6 0 0,1 -6,6h-72a6,6 0 0,1 -6-6v-72a6,6 0 0,1 6-6" fill="url(#3)" opacity=".1" transform="matrix(0 1-1 0 0 0)"/><path d="m12 86c-3.324 0-6-2.676-6-6v-68c0-3.324 2.676-6 6-6h72c3.324 0 6 2.676 6 6v68c0 3.324-2.676 6-6 6zm0-.969h72c2.805 0 5.03-2.226 5.03-5.03v-68c0-2.805-2.226-5.03-5.03-5.03h-72c-2.805 0-5.03 2.226-5.03 5.03v68c0 2.805 2.226 5.03 5.03 5.03" fill="url(#8)" opacity=".3"/><path d="m6 78v2c0 3.324 2.676 6 6 6h72c3.324 0 6-2.676 6-6v-2c0 3.324-2.676 6-6 6h-72c-3.324 0-6-2.676-6-6" fill="url(#7)" opacity=".1"/><path d="m6 80v4c0 3.324 2.676 6 6 6h72c3.324 0 6-2.676 6-6v-4c0 3.324-2.676 6-6 6h-72c-3.324 0-6-2.676-6-6" fill="url(#2)"/><path d="m6 82v2c0 3.324 2.676 6 6 6h72c3.324 0 6-2.676 6-6v-2c0 3.324-2.676 6-6 6h-72c-3.324 0-6-2.676-6-6" opacity=".1"/><path d="m6 83v1c0 3.324 2.676 6 6 6h72c3.324 0 6-2.676 6-6v-1c0 3.324-2.676 6-6 6h-72c-3.324 0-6-2.676-6-6" opacity=".15"/></svg>