<?xml version="1.0" encoding="UTF-8" standalone="no"?>
<!-- Generated with https://github.com/RazrFalcon/barh -->
<svg height="181" shape-rendering="crispEdges" width="629" xmlns="http://www.w3.org/2000/svg">
    <text font-family="Arial" font-size="16" font-weight="bold" x="139" y="16">
        Cleaning ratio in W3C SVG 1.1 TestSuite
    </text>
    <text font-family="Arial" font-size="16" x="4" y="58">
        svgcleaner 0.6.91
    </text>
    <text font-family="Arial" font-size="16" x="11" y="91">
        svgcleaner 0.6.2
    </text>
    <text font-family="Arial" font-size="16" x="55" y="124">
        svgo 0.7.0
    </text>
    <rect fill="#ccc" height="110" width="1" x="139" y="30"/>
    <text fill="#000" font-family="Arial" font-size="16" x="128" y="154">
        0%
    </text>
    <rect fill="#ccc" height="110" width="1" x="139" y="30"/>
    <text fill="#000" font-family="Arial" font-size="16" x="128" y="154">
        0%
    </text>
    <rect fill="#ccc" height="110" width="1" x="256" y="30"/>
    <text fill="#000" font-family="Arial" font-size="16" x="241" y="154">
        25%
    </text>
    <rect fill="#ccc" height="110" width="1" x="373" y="30"/>
    <text fill="#000" font-family="Arial" font-size="16" x="358" y="154">
        50%
    </text>
    <rect fill="#ccc" height="110" width="1" x="490" y="30"/>
    <text fill="#000" font-family="Arial" font-size="16" x="475" y="154">
        75%
    </text>
    <rect fill="#ccc" height="110" width="1" x="608" y="30"/>
    <text fill="#000" font-family="Arial" font-size="16" x="588" y="154">
        100%
    </text>
    <rect fill="#3260cd" height="22" width="152" x="139" y="41"/>
    <text fill="#fff" font-family="Arial" font-size="16" x="247" y="58">
        32.48
    </text>
    <rect fill="#3260cd" height="22" width="343" x="139" y="74"/>
    <text fill="#fff" font-family="Arial" font-size="16" x="438" y="91">
        73.32
    </text>
    <rect fill="#3260cd" height="22" width="192" x="139" y="107"/>
    <text fill="#fff" font-family="Arial" font-size="16" x="287" y="124">
        41.09
    </text>
    <rect fill="#333" height="110" width="1" x="139" y="30"/>
    <text font-family="Arial" font-size="16" font-style="italic" x="326" y="176">
        Removed data
    </text>
</svg>
