<?xml version="1.0" encoding="UTF-8" standalone="no"?>
<!-- Generated with https://github.com/RazrFalcon/barh -->
<svg height="148" shape-rendering="crispEdges" width="622" xmlns="http://www.w3.org/2000/svg">
    <text font-family="Arial" font-size="16" font-weight="bold" x="125" y="16">
        Broken files in Oxygen icon theme
    </text>
    <text font-family="Arial" font-size="16" x="4" y="56">
        svgcleaner 0.8.0
    </text>
    <text font-family="Arial" font-size="16" x="50" y="91">
        svgo 0.7.1
    </text>
    <rect fill="#ccc" height="77" width="1" x="125" y="30"/>
    <text fill="#000" font-family="Arial" font-size="16" x="121" y="121">
        0
    </text>
    <rect fill="#ccc" height="77" width="1" x="221" y="30"/>
    <text fill="#000" font-family="Arial" font-size="16" x="204" y="121">
        1000
    </text>
    <rect fill="#ccc" height="77" width="1" x="318" y="30"/>
    <text fill="#000" font-family="Arial" font-size="16" x="301" y="121">
        2000
    </text>
    <rect fill="#ccc" height="77" width="1" x="415" y="30"/>
    <text fill="#000" font-family="Arial" font-size="16" x="398" y="121">
        3000
    </text>
    <rect fill="#ccc" height="77" width="1" x="512" y="30"/>
    <text fill="#000" font-family="Arial" font-size="16" x="495" y="121">
        4000
    </text>
    <rect fill="#ccc" height="77" width="1" x="604" y="30"/>
    <text fill="#000" font-family="Arial" font-size="16" x="588" y="121">
        4941
    </text>
    <rect fill="#3260cd" height="22" width="0" x="125" y="41"/>
    <rect fill="#999" height="1" width="12" x="125" y="52"/>
    <text fill="#000" font-family="Arial" font-size="16" x="139" y="56">
        1
    </text>
    <rect fill="#3260cd" height="22" width="36" x="125" y="74"/>
    <text fill="#fff" font-family="Arial" font-size="16" x="131" y="91">
        374
    </text>
    <rect fill="#333" height="77" width="1" x="125" y="30"/>
    <text font-family="Arial" font-size="16" font-style="italic" x="354" y="143">
        Files
    </text>
</svg>
