<?xml version="1.0" encoding="UTF-8" standalone="no"?>
<!-- Generated with https://github.com/RazrFalcon/barh -->
<svg height="181" shape-rendering="crispEdges" width="629" xmlns="http://www.w3.org/2000/svg">
    <text font-family="Arial" font-size="16" font-weight="bold" x="132" y="16">
        Total errors count in Oxygen icon theme
    </text>
    <text font-family="Arial" font-size="16" x="4" y="58">
        svgcleaner 0.6.91
    </text>
    <text font-family="Arial" font-size="16" x="11" y="91">
        svgcleaner 0.6.2
    </text>
    <text font-family="Arial" font-size="16" x="55" y="124">
        svgo 0.7.0
    </text>
    <rect fill="#ccc" height="110" width="1" x="132" y="30"/>
    <text fill="#000" font-family="Arial" font-size="16" x="128" y="154">
        0
    </text>
    <rect fill="#ccc" height="110" width="1" x="228" y="30"/>
    <text fill="#000" font-family="Arial" font-size="16" x="211" y="154">
        1000
    </text>
    <rect fill="#ccc" height="110" width="1" x="325" y="30"/>
    <text fill="#000" font-family="Arial" font-size="16" x="308" y="154">
        2000
    </text>
    <rect fill="#ccc" height="110" width="1" x="422" y="30"/>
    <text fill="#000" font-family="Arial" font-size="16" x="405" y="154">
        3000
    </text>
    <rect fill="#ccc" height="110" width="1" x="519" y="30"/>
    <text fill="#000" font-family="Arial" font-size="16" x="502" y="154">
        4000
    </text>
    <rect fill="#ccc" height="110" width="1" x="611" y="30"/>
    <text fill="#000" font-family="Arial" font-size="16" x="595" y="154">
        4941
    </text>
    <rect fill="#3260cd" height="22" width="0" x="132" y="41"/>
    <rect fill="#999" height="1" width="12" x="132" y="52"/>
    <text fill="#000" font-family="Arial" font-size="16" x="146" y="58">
        9
    </text>
    <rect fill="#3260cd" height="22" width="80" x="132" y="74"/>
    <text fill="#fff" font-family="Arial" font-size="16" x="184" y="91">
        831
    </text>
    <rect fill="#3260cd" height="22" width="19" x="132" y="107"/>
    <rect fill="#999" height="1" width="12" x="151" y="118"/>
    <text fill="#000" font-family="Arial" font-size="16" x="165" y="124">
        201
    </text>
    <rect fill="#333" height="110" width="1" x="132" y="30"/>
    <text font-family="Arial" font-size="16" font-style="italic" x="361" y="176">
        Files
    </text>
</svg>
