<?xml version="1.0" encoding="UTF-8" standalone="no"?>
<!-- Generated with https://github.com/RazrFalcon/barh -->
<svg height="148" shape-rendering="crispEdges" width="622" xmlns="http://www.w3.org/2000/svg">
    <text font-family="Arial" font-size="16" font-weight="bold" x="125" y="16">
        Broken files in W3C SVG 1.1 TestSuite
    </text>
    <text font-family="Arial" font-size="16" x="4" y="56">
        svgcleaner 0.8.0
    </text>
    <text font-family="Arial" font-size="16" x="50" y="91">
        svgo 0.7.1
    </text>
    <rect fill="#ccc" height="77" width="1" x="125" y="30"/>
    <text fill="#000" font-family="Arial" font-size="16" x="121" y="121">
        0
    </text>
    <rect fill="#ccc" height="77" width="1" x="217" y="30"/>
    <text fill="#000" font-family="Arial" font-size="16" x="204" y="121">
        100
    </text>
    <rect fill="#ccc" height="77" width="1" x="309" y="30"/>
    <text fill="#000" font-family="Arial" font-size="16" x="296" y="121">
        200
    </text>
    <rect fill="#ccc" height="77" width="1" x="401" y="30"/>
    <text fill="#000" font-family="Arial" font-size="16" x="388" y="121">
        300
    </text>
    <rect fill="#ccc" height="77" width="1" x="493" y="30"/>
    <text fill="#000" font-family="Arial" font-size="16" x="480" y="121">
        400
    </text>
    <rect fill="#ccc" height="77" width="1" x="608" y="30"/>
    <text fill="#000" font-family="Arial" font-size="16" x="595" y="121">
        525
    </text>
    <rect fill="#3260cd" height="22" width="0" x="125" y="41"/>
    <rect fill="#999" height="1" width="12" x="125" y="52"/>
    <text fill="#000" font-family="Arial" font-size="16" x="139" y="56">
        1
    </text>
    <rect fill="#3260cd" height="22" width="261" x="125" y="74"/>
    <text fill="#fff" font-family="Arial" font-size="16" x="356" y="91">
        284
    </text>
    <rect fill="#333" height="77" width="1" x="125" y="30"/>
    <text font-family="Arial" font-size="16" font-style="italic" x="354" y="143">
        Files
    </text>
</svg>
