<?xml version="1.0" encoding="UTF-8" standalone="no"?>
<!-- Generated with https://github.com/RazrFalcon/barh -->
<svg height="181" shape-rendering="crispEdges" width="620" xmlns="http://www.w3.org/2000/svg">
    <text font-family="Arial" font-size="16" font-weight="bold" x="123" y="16">
        Broken files in W3C SVG 1.1 TestSuite
    </text>
    <text font-family="Arial" font-size="16" x="4" y="56">
        svgcleaner 0.9.1
    </text>
    <text font-family="Arial" font-size="16" x="46" y="91">
        svgo 0.7.2
    </text>
    <text font-family="Arial" font-size="16" x="44" y="124">
        scour 0.35
    </text>
    <rect fill="#ccc" height="110" width="1" x="123" y="30"/>
    <text fill="#000" font-family="Arial" font-size="16" x="119" y="154">
        0
    </text>
    <rect fill="#ccc" height="110" width="1" x="215" y="30"/>
    <text fill="#000" font-family="Arial" font-size="16" x="202" y="154">
        100
    </text>
    <rect fill="#ccc" height="110" width="1" x="307" y="30"/>
    <text fill="#000" font-family="Arial" font-size="16" x="294" y="154">
        200
    </text>
    <rect fill="#ccc" height="110" width="1" x="399" y="30"/>
    <text fill="#000" font-family="Arial" font-size="16" x="386" y="154">
        300
    </text>
    <rect fill="#ccc" height="110" width="1" x="491" y="30"/>
    <text fill="#000" font-family="Arial" font-size="16" x="478" y="154">
        400
    </text>
    <rect fill="#ccc" height="110" width="1" x="606" y="30"/>
    <text fill="#000" font-family="Arial" font-size="16" x="593" y="154">
        525
    </text>
    <rect fill="#3260cd" height="22" width="0" x="123" y="41"/>
    <rect fill="#999" height="1" width="12" x="123" y="52"/>
    <text fill="#000" font-family="Arial" font-size="16" x="137" y="56">
        1
    </text>
    <rect fill="#3260cd" height="22" width="261" x="123" y="74"/>
    <text fill="#fff" font-family="Arial" font-size="16" x="354" y="91">
        284
    </text>
    <rect fill="#3260cd" height="22" width="247" x="123" y="107"/>
    <text fill="#fff" font-family="Arial" font-size="16" x="340" y="124">
        269
    </text>
    <rect fill="#333" height="110" width="1" x="123" y="30"/>
    <text font-family="Arial" font-size="16" font-style="italic" x="352" y="176">
        Files
    </text>
</svg>
