<?xml version="1.0" encoding="UTF-8" standalone="no"?>
<!-- Generated with https://github.com/RazrFalcon/barh -->
<svg height="181" shape-rendering="crispEdges" width="622" xmlns="http://www.w3.org/2000/svg">
    <text font-family="Arial" font-size="16" font-weight="bold" x="125" y="16">
        Broken files in Oxygen icon theme
    </text>
    <text font-family="Arial" font-size="16" x="4" y="58">
        svgcleaner 0.9.2
    </text>
    <text font-family="Arial" font-size="16" x="48" y="91">
        svgo 1.0.3
    </text>
    <text font-family="Arial" font-size="16" x="46" y="124">
        scour 0.36
    </text>
    <rect fill="#ccc" height="110" width="1" x="125" y="30"/>
    <text fill="#000" font-family="Arial" font-size="16" x="121" y="154">
        0
    </text>
    <rect fill="#ccc" height="110" width="1" x="221" y="30"/>
    <text fill="#000" font-family="Arial" font-size="16" x="204" y="154">
        1000
    </text>
    <rect fill="#ccc" height="110" width="1" x="318" y="30"/>
    <text fill="#000" font-family="Arial" font-size="16" x="301" y="154">
        2000
    </text>
    <rect fill="#ccc" height="110" width="1" x="415" y="30"/>
    <text fill="#000" font-family="Arial" font-size="16" x="398" y="154">
        3000
    </text>
    <rect fill="#ccc" height="110" width="1" x="512" y="30"/>
    <text fill="#000" font-family="Arial" font-size="16" x="495" y="154">
        4000
    </text>
    <rect fill="#ccc" height="110" width="1" x="604" y="30"/>
    <text fill="#000" font-family="Arial" font-size="16" x="588" y="154">
        4941
    </text>
    <rect fill="#3260cd" height="22" width="0" x="125" y="41"/>
    <rect fill="#999" height="1" width="12" x="125" y="52"/>
    <text fill="#000" font-family="Arial" font-size="16" x="139" y="58">
        0
    </text>
    <rect fill="#3260cd" height="22" width="2" x="125" y="74"/>
    <rect fill="#999" height="1" width="12" x="127" y="85"/>
    <text fill="#000" font-family="Arial" font-size="16" x="141" y="91">
        29
    </text>
    <rect fill="#3260cd" height="22" width="0" x="125" y="107"/>
    <rect fill="#999" height="1" width="12" x="125" y="118"/>
    <text fill="#000" font-family="Arial" font-size="16" x="139" y="124">
        6
    </text>
    <rect fill="#333" height="110" width="1" x="125" y="30"/>
    <text font-family="Arial" font-size="16" font-style="italic" x="354" y="176">
        Files
    </text>
</svg>
