<?xml version="1.0" encoding="UTF-8" standalone="no"?>
<!-- Generated with https://github.com/RazrFalcon/barh -->
<svg height="181" shape-rendering="crispEdges" width="620" xmlns="http://www.w3.org/2000/svg">
    <text font-family="Arial" font-size="16" font-weight="bold" x="123" y="16">
        Broken files in Oxygen icon theme
    </text>
    <text font-family="Arial" font-size="16" x="4" y="56">
        svgcleaner 0.9.1
    </text>
    <text font-family="Arial" font-size="16" x="46" y="91">
        svgo 0.7.2
    </text>
    <text font-family="Arial" font-size="16" x="44" y="124">
        scour 0.35
    </text>
    <rect fill="#ccc" height="110" width="1" x="123" y="30"/>
    <text fill="#000" font-family="Arial" font-size="16" x="119" y="154">
        0
    </text>
    <rect fill="#ccc" height="110" width="1" x="219" y="30"/>
    <text fill="#000" font-family="Arial" font-size="16" x="202" y="154">
        1000
    </text>
    <rect fill="#ccc" height="110" width="1" x="316" y="30"/>
    <text fill="#000" font-family="Arial" font-size="16" x="299" y="154">
        2000
    </text>
    <rect fill="#ccc" height="110" width="1" x="413" y="30"/>
    <text fill="#000" font-family="Arial" font-size="16" x="396" y="154">
        3000
    </text>
    <rect fill="#ccc" height="110" width="1" x="510" y="30"/>
    <text fill="#000" font-family="Arial" font-size="16" x="493" y="154">
        4000
    </text>
    <rect fill="#ccc" height="110" width="1" x="602" y="30"/>
    <text fill="#000" font-family="Arial" font-size="16" x="586" y="154">
        4941
    </text>
    <rect fill="#3260cd" height="22" width="0" x="123" y="41"/>
    <rect fill="#999" height="1" width="12" x="123" y="52"/>
    <text fill="#000" font-family="Arial" font-size="16" x="137" y="56">
        1
    </text>
    <rect fill="#3260cd" height="22" width="17" x="123" y="74"/>
    <rect fill="#999" height="1" width="12" x="140" y="85"/>
    <text fill="#000" font-family="Arial" font-size="16" x="154" y="91">
        184
    </text>
    <rect fill="#3260cd" height="22" width="0" x="123" y="107"/>
    <rect fill="#999" height="1" width="12" x="123" y="118"/>
    <text fill="#000" font-family="Arial" font-size="16" x="137" y="124">
        8
    </text>
    <rect fill="#333" height="110" width="1" x="123" y="30"/>
    <text font-family="Arial" font-size="16" font-style="italic" x="352" y="176">
        Files
    </text>
</svg>
