<?xml version="1.0" encoding="UTF-8" standalone="no"?>
<!-- Generated with https://github.com/RazrFalcon/barh -->
<svg height="181" shape-rendering="crispEdges" width="620" xmlns="http://www.w3.org/2000/svg">
    <text font-family="Arial" font-size="16" font-weight="bold" x="134" y="16">
        Average cleaning time in Oxygen icon theme
    </text>
    <text font-family="Arial" font-size="16" x="4" y="58">
        svgcleaner 0.8.1
    </text>
    <text font-family="Arial" font-size="16" x="48" y="91">
        svgo 0.7.1
    </text>
    <text font-family="Arial" font-size="16" x="44" y="124">
        scour 0.35
    </text>
    <rect fill="#ccc" height="110" width="1" x="134" y="30"/>
    <text fill="#000" font-family="Arial" font-size="16" x="119" y="154">
        0ms
    </text>
    <rect fill="#ccc" height="110" width="1" x="248" y="30"/>
    <text fill="#000" font-family="Arial" font-size="16" x="224" y="154">
        600ms
    </text>
    <rect fill="#ccc" height="110" width="1" x="362" y="30"/>
    <text fill="#000" font-family="Arial" font-size="16" x="334" y="154">
        1200ms
    </text>
    <rect fill="#ccc" height="110" width="1" x="476" y="30"/>
    <text fill="#000" font-family="Arial" font-size="16" x="448" y="154">
        1800ms
    </text>
    <rect fill="#ccc" height="110" width="1" x="591" y="30"/>
    <text fill="#000" font-family="Arial" font-size="16" x="563" y="154">
        2400ms
    </text>
    <rect fill="#3260cd" height="22" width="1" x="134" y="41"/>
    <rect fill="#999" height="1" width="12" x="135" y="52"/>
    <text fill="#000" font-family="Arial" font-size="16" x="149" y="58">
        7.567
    </text>
    <rect fill="#3260cd" height="22" width="130" x="134" y="74"/>
    <text fill="#fff" font-family="Arial" font-size="16" x="202" y="91">
        687.752
    </text>
    <rect fill="#3260cd" height="22" width="421" x="134" y="107"/>
    <text fill="#fff" font-family="Arial" font-size="16" x="487" y="124">
        2216.091
    </text>
    <rect fill="#333" height="110" width="1" x="134" y="30"/>
    <text font-family="Arial" font-size="16" font-style="italic" x="352" y="176">
        Time
    </text>
</svg>
