<?xml version="1.0" encoding="UTF-8" standalone="no"?>
<!-- Generated with https://github.com/RazrFalcon/barh -->
<svg height="181" shape-rendering="crispEdges" width="629" xmlns="http://www.w3.org/2000/svg">
    <text font-family="Arial" font-size="16" font-weight="bold" x="143" y="16">
        Average cleaning time in W3C SVG 1.1 TestSuite
    </text>
    <text font-family="Arial" font-size="16" x="4" y="58">
        svgcleaner 0.6.91
    </text>
    <text font-family="Arial" font-size="16" x="11" y="91">
        svgcleaner 0.6.2
    </text>
    <text font-family="Arial" font-size="16" x="55" y="124">
        svgo 0.7.0
    </text>
    <rect fill="#ccc" height="110" width="1" x="143" y="30"/>
    <text fill="#000" font-family="Arial" font-size="16" x="128" y="154">
        0ms
    </text>
    <rect fill="#ccc" height="110" width="1" x="143" y="30"/>
    <text fill="#000" font-family="Arial" font-size="16" x="128" y="154">
        0ms
    </text>
    <rect fill="#ccc" height="110" width="1" x="258" y="30"/>
    <text fill="#000" font-family="Arial" font-size="16" x="239" y="154">
        60ms
    </text>
    <rect fill="#ccc" height="110" width="1" x="373" y="30"/>
    <text fill="#000" font-family="Arial" font-size="16" x="349" y="154">
        120ms
    </text>
    <rect fill="#ccc" height="110" width="1" x="488" y="30"/>
    <text fill="#000" font-family="Arial" font-size="16" x="464" y="154">
        180ms
    </text>
    <rect fill="#ccc" height="110" width="1" x="604" y="30"/>
    <text fill="#000" font-family="Arial" font-size="16" x="580" y="154">
        240ms
    </text>
    <rect fill="#3260cd" height="22" width="2" x="143" y="41"/>
    <rect fill="#999" height="1" width="12" x="145" y="52"/>
    <text fill="#000" font-family="Arial" font-size="16" x="159" y="58">
        1.468
    </text>
    <rect fill="#3260cd" height="22" width="10" x="143" y="74"/>
    <rect fill="#999" height="1" width="12" x="153" y="85"/>
    <text fill="#000" font-family="Arial" font-size="16" x="167" y="91">
        5.443
    </text>
    <rect fill="#3260cd" height="22" width="415" x="143" y="107"/>
    <text fill="#fff" font-family="Arial" font-size="16" x="496" y="124">
        216.365
    </text>
    <rect fill="#333" height="110" width="1" x="143" y="30"/>
    <text font-family="Arial" font-size="16" font-style="italic" x="361" y="176">
        Time
    </text>
</svg>
