<?xml version="1.0" encoding="UTF-8" standalone="no"?>
<!-- Generated with https://github.com/RazrFalcon/barh -->
<svg height="148" shape-rendering="crispEdges" width="622" xmlns="http://www.w3.org/2000/svg">
    <text font-family="Arial" font-size="16" font-weight="bold" x="136" y="16">
        Average cleaning time in W3C SVG 1.1 TestSuite
    </text>
    <text font-family="Arial" font-size="16" x="4" y="58">
        svgcleaner 0.8.0
    </text>
    <text font-family="Arial" font-size="16" x="50" y="91">
        svgo 0.7.1
    </text>
    <rect fill="#ccc" height="77" width="1" x="136" y="30"/>
    <text fill="#000" font-family="Arial" font-size="16" x="121" y="121">
        0ms
    </text>
    <rect fill="#ccc" height="77" width="1" x="251" y="30"/>
    <text fill="#000" font-family="Arial" font-size="16" x="232" y="121">
        75ms
    </text>
    <rect fill="#ccc" height="77" width="1" x="366" y="30"/>
    <text fill="#000" font-family="Arial" font-size="16" x="342" y="121">
        150ms
    </text>
    <rect fill="#ccc" height="77" width="1" x="481" y="30"/>
    <text fill="#000" font-family="Arial" font-size="16" x="457" y="121">
        225ms
    </text>
    <rect fill="#ccc" height="77" width="1" x="597" y="30"/>
    <text fill="#000" font-family="Arial" font-size="16" x="573" y="121">
        300ms
    </text>
    <rect fill="#3260cd" height="22" width="2" x="136" y="41"/>
    <rect fill="#999" height="1" width="12" x="138" y="52"/>
    <text fill="#000" font-family="Arial" font-size="16" x="152" y="58">
        1.575
    </text>
    <rect fill="#3260cd" height="22" width="375" x="136" y="74"/>
    <text fill="#fff" font-family="Arial" font-size="16" x="449" y="91">
        244.228
    </text>
    <rect fill="#333" height="77" width="1" x="136" y="30"/>
    <text font-family="Arial" font-size="16" font-style="italic" x="354" y="143">
        Time
    </text>
</svg>
