<?xml version="1.0" encoding="UTF-8" standalone="no"?>
<!-- Generated with https://github.com/RazrFalcon/barh -->
<svg height="181" shape-rendering="crispEdges" width="622" xmlns="http://www.w3.org/2000/svg">
    <text font-family="Arial" font-size="16" font-weight="bold" x="136" y="16">
        Average cleaning time in Oxygen icon theme
    </text>
    <text font-family="Arial" font-size="16" x="4" y="58">
        svgcleaner 0.9.2
    </text>
    <text font-family="Arial" font-size="16" x="48" y="91">
        svgo 1.0.3
    </text>
    <text font-family="Arial" font-size="16" x="46" y="124">
        scour 0.36
    </text>
    <rect fill="#ccc" height="110" width="1" x="136" y="30"/>
    <text fill="#000" font-family="Arial" font-size="16" x="121" y="154">
        0ms
    </text>
    <rect fill="#ccc" height="110" width="1" x="250" y="30"/>
    <text fill="#000" font-family="Arial" font-size="16" x="226" y="154">
        600ms
    </text>
    <rect fill="#ccc" height="110" width="1" x="364" y="30"/>
    <text fill="#000" font-family="Arial" font-size="16" x="336" y="154">
        1200ms
    </text>
    <rect fill="#ccc" height="110" width="1" x="478" y="30"/>
    <text fill="#000" font-family="Arial" font-size="16" x="450" y="154">
        1800ms
    </text>
    <rect fill="#ccc" height="110" width="1" x="593" y="30"/>
    <text fill="#000" font-family="Arial" font-size="16" x="565" y="154">
        2400ms
    </text>
    <rect fill="#3260cd" height="22" width="3" x="136" y="41"/>
    <rect fill="#999" height="1" width="12" x="139" y="52"/>
    <text fill="#000" font-family="Arial" font-size="16" x="153" y="58">
        16
    </text>
    <rect fill="#3260cd" height="22" width="133" x="136" y="74"/>
    <text fill="#fff" font-family="Arial" font-size="16" x="239" y="91">
        702
    </text>
    <rect fill="#3260cd" height="22" width="421" x="136" y="107"/>
    <text fill="#fff" font-family="Arial" font-size="16" x="518" y="124">
        2216
    </text>
    <rect fill="#333" height="110" width="1" x="136" y="30"/>
    <text font-family="Arial" font-size="16" font-style="italic" x="354" y="176">
        Time
    </text>
</svg>
