<?xml version="1.0" encoding="UTF-8" standalone="no"?>
<!-- Generated with https://github.com/RazrFalcon/barh -->
<svg height="214" shape-rendering="crispEdges" width="622" xmlns="http://www.w3.org/2000/svg">
    <text font-family="Arial" font-size="16" font-weight="bold" x="132" y="16">
        Cleaning ratio in Oxygen icon theme
    </text>
    <text font-family="Arial" font-size="16" x="4" y="58">
        svgcleaner 0.9.2
    </text>
    <text font-family="Arial" font-size="16" x="4" y="91">
        svgcleaner 0.9.0
    </text>
    <text font-family="Arial" font-size="16" x="48" y="124">
        svgo 1.0.3
    </text>
    <text font-family="Arial" font-size="16" x="46" y="157">
        scour 0.36
    </text>
    <rect fill="#ccc" height="143" width="1" x="132" y="30"/>
    <text fill="#000" font-family="Arial" font-size="16" x="121" y="187">
        0%
    </text>
    <rect fill="#ccc" height="143" width="1" x="249" y="30"/>
    <text fill="#000" font-family="Arial" font-size="16" x="234" y="187">
        25%
    </text>
    <rect fill="#ccc" height="143" width="1" x="366" y="30"/>
    <text fill="#000" font-family="Arial" font-size="16" x="351" y="187">
        50%
    </text>
    <rect fill="#ccc" height="143" width="1" x="483" y="30"/>
    <text fill="#000" font-family="Arial" font-size="16" x="468" y="187">
        75%
    </text>
    <rect fill="#ccc" height="143" width="1" x="601" y="30"/>
    <text fill="#000" font-family="Arial" font-size="16" x="581" y="187">
        100%
    </text>
    <rect fill="#3260cd" height="22" width="287" x="132" y="41"/>
    <text fill="#fff" font-family="Arial" font-size="16" x="375" y="58">
        61.34
    </text>
    <rect fill="#3260cd" height="22" width="287" x="132" y="74"/>
    <text fill="#fff" font-family="Arial" font-size="16" x="375" y="91">
        61.25
    </text>
    <rect fill="#3260cd" height="22" width="250" x="132" y="107"/>
    <text fill="#fff" font-family="Arial" font-size="16" x="338" y="124">
        53.33
    </text>
    <rect fill="#3260cd" height="22" width="250" x="132" y="140"/>
    <text fill="#fff" font-family="Arial" font-size="16" x="338" y="157">
        53.49
    </text>
    <rect fill="#333" height="143" width="1" x="132" y="30"/>
    <text font-family="Arial" font-size="16" font-style="italic" x="319" y="209">
        Removed data
    </text>
</svg>
